<?xml version="1.0" encoding="UTF-8"?>
<!DOCTYPE svg PUBLIC "-//W3C//DTD SVG 1.1//EN" "http://www.w3.org/Graphics/SVG/1.1/DTD/svg11.dtd">
<!-- Creator: CorelDRAW 2018 (64-Bit) -->
<svg xmlns="http://www.w3.org/2000/svg" xml:space="preserve" width="32.6766in" height="24.3093in" version="1.1" style="shape-rendering:geometricPrecision; text-rendering:geometricPrecision; image-rendering:optimizeQuality; fill-rule:evenodd; clip-rule:evenodd"
viewBox="0 0 59547.64 44299.66"
 xmlns:xlink="http://www.w3.org/1999/xlink">
 <defs>
  <style type="text/css">
   <![CDATA[
    .fil9 {fill:none;fill-rule:nonzero}
    .fil21 {fill:#0056B3}
    .fil22 {fill:#007BFF}
    .fil23 {fill:#F5F4F3}
    .fil7 {fill:#0056B3;fill-rule:nonzero}
    .fil20 {fill:#007BFF;fill-rule:nonzero}
    .fil8 {fill:#1FB7C3;fill-rule:nonzero}
    .fil1 {fill:#266B5A;fill-rule:nonzero}
    .fil14 {fill:#2F2539;fill-rule:nonzero}
    .fil2 {fill:#3E8E7D;fill-rule:nonzero}
    .fil13 {fill:#532C36;fill-rule:nonzero}
    .fil15 {fill:#552F38;fill-rule:nonzero}
    .fil5 {fill:#7A88DD;fill-rule:nonzero}
    .fil12 {fill:#844E4B;fill-rule:nonzero}
    .fil4 {fill:#9CB6EE;fill-rule:nonzero}
    .fil3 {fill:#9EB5E8;fill-rule:nonzero}
    .fil10 {fill:#B9CDFF;fill-rule:nonzero}
    .fil17 {fill:#E7E6E8;fill-rule:nonzero}
    .fil11 {fill:#E8F1FF;fill-rule:nonzero}
    .fil18 {fill:#EEEEEE;fill-rule:nonzero}
    .fil6 {fill:#F8CF70;fill-rule:nonzero}
    .fil16 {fill:#FEFCFF;fill-rule:nonzero}
    .fil19 {fill:white;fill-rule:nonzero}
    .fil0 {fill:#B9CDFF;fill-rule:nonzero;fill-opacity:0.490196}
   ]]>
  </style>
 </defs>
 <g id="Layer_x0020_1">
  <metadata id="CorelCorpID_0Corel-Layer"/>
  <g id="_2353884227824">
   <g>
    <path class="fil0" d="M22398.38 5923.27c61.11,1331.57 -418.57,2620.58 -1277.46,3531.16 -1680.67,1781.8 -5679.41,5331.99 -9268.77,3270.03 -4691.46,-2695.11 1993.94,-12309.19 7140.43,-10752.45 2626.87,794.6 3338.58,2485.76 3405.81,3951.26z"/>
    <path class="fil0" d="M51688.92 16536.52c0,0 -456,-9992.16 -11086.22,-9422.25 -4176.17,223.89 -7945.07,1640.96 -10982.16,3279.13 -5093.22,2747.26 -10567.79,4522.21 -16189.53,5346.99 -4318.34,633.56 -8899.11,2741.7 -10118.99,8604.04 -2466.21,11851.88 7531.84,20621.98 22492.58,19915.36 14960.75,-706.63 26594.01,-10634.44 25884.32,-27723.28z"/>
   </g>
   <path class="fil1" d="M46559.07 26681.41c246.19,176.13 957.98,537.34 2000.67,423.79 1303.48,-119.51 1686.88,-715.18 425.89,-1037.34 -982.42,-238.55 -1965.43,189.88 -2345.47,427.09 171.61,-387.3 359.23,-765.97 562.4,-1135.27 7.09,4.7 11.09,7.21 11.06,7.17 0.03,0.04 2.78,-10.3 7.61,-29.49 325.34,114.25 1007.33,242.01 1879.79,-25.79 1217.04,-348.14 1503.29,-1022.49 241.76,-1097.84 -734.21,-26.4 -1414.95,311.7 -1836.46,619.81 229.36,-378.9 475.74,-747.14 738.59,-1103.95 238.25,72.03 751.45,154.13 1398.12,-89.1 889.32,-319.8 1073.91,-858.95 137.99,-833.74 -439.31,20.35 -843.6,208.46 -1139.49,408.69 222.94,-276.2 456.34,-544.86 699.81,-805.62 427.73,-10.64 1572.26,-2.63 1817.45,-497.74 211.97,-413.77 -531.96,-429.63 -1197.95,-127.7 157.27,-149.73 318.22,-296.43 482.7,-440.08 191.14,-17.29 557.14,-88.58 926.2,-374.17 340.89,-261.44 381.25,-476.86 363.72,-602.02 -1.41,-10.14 -3.85,-19.99 -6.94,-29.65 -0.61,-1.92 -1.5,-3.76 -2.2,-5.65 -2.84,-7.94 -6.11,-15.71 -10.05,-23.19 -0.7,-1.35 -1.53,-2.63 -2.29,-3.95 -4.49,-8.16 -9.63,-15.98 -15.34,-23.5 -0.37,-0.49 -0.77,-0.98 -1.16,-1.46 -6.39,-8.22 -13.45,-15.98 -21.14,-23.25 -0.04,-0.04 -0.04,-0.04 -0.04,-0.04 -24.23,-22.86 -54.27,-41.04 -89.01,-51.67 -133.63,-40.76 -392.81,-54.57 -746.93,216.92 -349.66,270.46 -466.54,576.91 -504.86,758.57 -177.2,153.82 -350.3,311.22 -519.21,472.04 305.38,-619.63 403.04,-1308.32 -101,-1122.23 -621.98,237.52 -589.65,1361.76 -523.92,1753.13 -245.68,263.06 -481.06,534.1 -705.98,812.75 128.92,-328.82 251.93,-744.88 229.79,-1170.54 -26.67,-912.23 -667.02,-660.82 -882.2,321.15 -143.53,709.35 112.2,1171.06 252.34,1368.03 -265.2,359.92 -513.72,731.4 -745.1,1113.64 75.17,-525.48 150.4,-1286.44 -51,-2000.15 -318.65,-1248.89 -1099.73,-697.49 -1043.91,725.48 58.42,1004.92 545.22,1547.36 797.62,1777.23 -13.69,14.18 -20.84,22.07 -20.84,22.07 0.03,0.03 4.15,2.29 11.7,6.11 -204.97,372.55 -394.21,754.51 -567.34,1145.23 -86.47,-465.93 -279.26,-1580.94 -905.67,-2403.07 -807.25,-1083.78 -1331.21,-216.16 -710.93,1130.93 503.87,1054.61 1261.99,1362.86 1534.8,1460.22 -238.46,558.67 -444.23,1134.81 -616.21,1726.52l203.57 0c166.05,-560.9 362.49,-1107.68 589.04,-1638.39z"/>
   <g>
    <g>
     <g>
      <path class="fil2" d="M7097.6 21231.99c156.39,-710.2 325.46,-1181.87 662.44,-1134.69 588.25,82.31 467.36,1041.28 464,1577.7 -2.14,345.81 -85.1,927 -269.11,1329.92l1315.29 0c512.22,-2432.65 -1706.14,-4471.67 -3082.84,-5997.31 -1690.06,-1872.94 -5043.69,-2937.38 -5043.69,-2937.38 418.02,2058.63 194.44,5832.41 1525.46,8567.06 62.06,127.54 124.88,249.86 188.22,367.63l4260.62 0c-137.84,-440.88 -159.54,-1140.99 -20.38,-1772.93zm-4856.35 -4380.21l0 0c123.14,-163.23 613.67,12.77 874.07,251.97 260.41,239.2 532.82,595.46 543.42,917.37 10.63,321.95 -850.05,-167.3 -1219.73,-508 -369.65,-340.74 -303.89,-520.6 -197.77,-661.34zm3269.6 5381.01l0 0c-359.19,478.63 -1214.14,29.95 -1712.12,-232.63 -497.96,-262.54 -1411.02,-1092.61 -1301.8,-1565.6 109.2,-472.99 1393.5,-59.16 2275.37,665.16 586.3,481.57 944.33,858.88 738.56,1133.07zm113.21 -2639.73l0 0c-319.11,370.56 -766.09,-970.36 -823.84,-1692.69 -57.78,-722.33 199.63,-863.35 461.41,-923.33 303.58,-69.58 664.02,579.44 705.55,1087.36 41.53,507.91 -23.96,1158.07 -343.11,1528.66z"/>
      <path class="fil1" d="M4991.88 19334.73c-963.21,-1613 -2937.69,-4579.17 -3841.65,-5230.03 0,0 1845.47,2275.86 2878.44,4021.51 1114.07,1882.66 1966.2,3575.81 2562.33,4878.72l319.25 0c-540.67,-1181.78 -1221.23,-2502.72 -1918.38,-3670.2z"/>
     </g>
    </g>
   </g>
   <g>
    <path class="fil2" d="M53298.81 30184.93c0,0 5171.85,1072.36 4710.2,-1276.33 -461.65,-2348.68 -4710.2,1276.33 -4710.2,1276.33z"/>
    <g>
     <path class="fil1" d="M51451.87 30804.25c49.96,-91.21 596.84,-329.73 602.34,-332.12 292.94,-126.72 740.42,-292.89 1215.85,-368.79 1530.95,-878.05 3248.24,-898.73 3265.45,-898.85 46.96,-0.28 85.28,37.52 85.59,84.55 0.31,46.96 -37.52,85.31 -84.52,85.61 -16.84,0.12 -1700.94,21.3 -3195.19,883.97 -9.1,5.23 -19.1,8.75 -29.49,10.36 -836.28,129.84 -1643.13,569.06 -1720.37,631.03 -25.58,30.34 -69.76,39.48 -105.87,19.71 -18.98,-10.36 -32.42,-26.95 -39.21,-45.84 -7.94,-22.09 -6.72,-47.39 5.44,-69.64zm149.15 81.93l0 0c0.03,-0.06 0.09,-0.12 0.12,-0.22 -0.03,0.09 -0.09,0.15 -0.12,0.22z"/>
    </g>
    <path class="fil2" d="M54946.58 26955.45c0,0 5260.95,469.17 4531.69,-1810.64 -729.23,-2279.81 -4531.69,1810.64 -4531.69,1810.64z"/>
    <g>
     <path class="fil1" d="M50278.16 33637c8.77,24.45 28.57,44.55 55.31,52.71 44.95,13.69 92.49,-11.64 106.18,-56.59 407.51,-1337.71 1666.99,-4659.35 4554.54,-6607.13 1.07,-0.73 2.14,-1.5 3.18,-2.23 1384.89,-1029.24 3055.27,-1244.21 3071.98,-1246.25 46.63,-5.75 79.79,-48.19 74.11,-94.79 -5.69,-46.66 -48.13,-79.81 -94.76,-74.13 -17.14,2.07 -1729.48,221.51 -3151.28,1277.42 -2931.58,1978.36 -4207.84,5342.69 -4620.54,6697.48 -5.53,18.24 -4.68,36.85 1.28,53.5z"/>
    </g>
    <path class="fil2" d="M54288.36 26141.51c0,0 3411.81,-2619.08 1717.9,-3583.45 -1693.91,-964.43 -1717.9,3583.45 -1717.9,3583.45z"/>
    <g>
     <path class="fil1" d="M53976.62 27667.32c15.07,42.01 60.45,65.55 103.87,52.86 45.1,-13.14 71.01,-60.38 57.88,-105.51 -68.33,-234.37 144.38,-1126.84 232.14,-1450.96 0.55,-2.08 1.03,-4.18 1.43,-6.33 262.24,-1377.68 1141.84,-2422.87 1150.7,-2433.23 30.43,-35.78 26.16,-89.44 -9.59,-119.97 -35.79,-30.46 -89.47,-26.16 -119.94,9.63 -37.34,43.81 -916.45,1088.64 -1187.71,2508.58 -37.34,138.2 -323.63,1220.16 -230.4,1539.93 0.49,1.65 1.04,3.36 1.61,4.98z"/>
    </g>
    <path class="fil2" d="M51262.02 29236.57c0,0 3235.16,-4458.86 803.88,-5025.94 -2431.24,-567.07 -803.88,5025.94 -803.88,5025.94z"/>
    <g>
     <path class="fil1" d="M50990.55 31777.38c12.01,33.46 44.37,57.08 81.86,56.28 47,-0.98 84.28,-39.85 83.3,-86.81 -0.37,-16.9 -32.67,-1697.7 188.22,-2487.35 2.84,-10.24 3.8,-20.9 2.72,-31.47 -180.34,-1791.54 521.3,-3402.95 528.42,-3419.02 18.98,-43 -0.42,-93.26 -43.36,-112.24 -43,-19.03 -93.2,0.37 -112.24,43.33 -7.27,16.41 -723,1657.76 -543.69,3489.12 -223.01,819.19 -191.65,2451.65 -190.18,2521.2 0.18,9.44 1.92,18.52 4.94,26.95z"/>
    </g>
   </g>
   <g>
    <g>
     <g>
      <g>
       <g>
        <path class="fil2" d="M48746.78 43088.77c476.04,-496.94 1283.63,-1023.4 1483.26,-970.05 199.62,53.35 -26.7,99.8 238.68,189.6 139.71,47.31 -264.43,603.13 -513.68,1243.78l4530.39 0c-243.3,-55.46 -427.12,-123.57 -472.01,-195.59 -136.5,-218.91 109.21,-483.81 658.13,-322.78 548.89,161.04 1393.05,94.6 1960.58,198.65 567.56,104.08 960.98,-441.39 1208.73,-991.69 247.76,-550.27 750.63,-1560.81 769.94,-1750.65 0,0 -632.25,623.66 -1277.09,753.22 -644.87,129.59 -1803.33,203.69 -2105.14,179.61 -301.84,-24.05 -1847.16,179.4 -1762.6,-490.01 84.58,-669.41 1078.2,-32.64 2010.35,-60.26 932.14,-27.65 2861.94,-304.44 3072.75,-1304.95 210.85,-1000.52 95.55,-1981.27 92.92,-2183.27 0,0 -510.27,920.49 -1298.54,1257.07 -788.24,336.61 -2019.37,800.19 -2503.9,588.86 -484.54,-211.3 -815.9,-595.52 -134.6,-790.87 681.32,-195.35 2026.76,-710.14 2496.3,-936.9 469.53,-226.79 1188.96,-1317.82 1079.14,-1636.55 -109.82,-318.74 -229.63,-929.53 -322.31,-1124.15 0,0 -520.02,886.39 -948.09,1193.48 -428.1,307.03 -1637.31,782.74 -1649.91,288.7 -12.65,-494.07 1001.95,-877.14 1347.37,-1086.76 345.41,-209.62 804.67,-986.46 646.27,-1217.53 -158.4,-231.06 -579.81,-607.92 -757.99,-1165.12 -178.2,-557.2 -155.19,-1167.24 -317.97,-1261.23 0,0 -684.84,1235.38 -1922.6,1064.94 -1237.79,-170.45 -1642.64,249.77 -1642.64,249.77 0,0 -243.72,982.28 -34.68,2000.67 209.04,1018.4 143.65,1368.92 -159.35,1372.85 -303.03,3.94 -1083.05,-1457.43 -399.84,-3465.13 0,0 -773.39,697.39 -1003.97,725.75 -230.61,28.33 -901.09,307.52 -741.83,1338.17 159.23,1030.64 486.95,2067.53 736.69,2702.37 249.77,634.82 128.12,1086.81 -265.57,866.71 -393.72,-220.1 -1487.5,-2588.46 -1484.63,-3446.4 2.87,-857.94 26.27,-1210.29 26.27,-1210.29 0,0 -746.07,958.2 -941.08,1077.46 -195.04,119.26 -787.78,413.22 -543.42,1290.32 244.39,877.13 1292.64,2009.65 1521.57,2526.98 228.93,517.36 411.75,1195.41 -272.81,957.31 -684.59,-238.07 -1723.43,-2884.86 -1523.62,-3737.06 0,0 -484.54,614.86 -930.11,798.42 -445.55,183.52 -1079.82,1250.13 -1020.87,1841.53 58.97,591.39 194.77,1354.27 793.98,1901.33 599.22,547.09 1844.53,936.56 1698.74,1199.56 -145.79,263 -1123.82,709.28 -2705.67,-468.46 0,0 -124.94,1589.62 1087.45,2471.91l1778.46 0c145.11,-148.26 277.79,-316.38 418.53,-463.33zm4448.38 -4426.2l0 0c248.58,-143.71 482.71,-61.84 614.69,11.73 95.06,53.02 163.93,147.44 170.81,256.04 20.2,319.78 -451.17,507.79 -781.21,422.23 -388.29,-100.65 -383.77,-470.6 -4.28,-690zm-915.75 3532.14l0 0c61.23,406.41 -564.35,346.12 -941.91,-6.44 -377.59,-352.56 -20.02,-584.09 450.89,-437.63 470.97,146.45 491.02,444.07 491.02,444.07zm-988.91 -3493.27l0 0c117.77,0.8 206.29,46.27 270.98,102.8 99.15,86.69 153.88,213.28 159.6,344.89 8.62,198.31 -10.94,553.13 -272.88,470.6 -359.22,-113.18 -471.64,-920.43 -157.7,-918.29z"/>
       </g>
      </g>
     </g>
     <path class="fil1" d="M50814.58 42013.39c150.21,-194.8 328.6,-476.32 536.08,-815.62 3884.77,1896.62 5831.81,1028.94 5831.81,1028.94 -2441.57,472.28 -5072.32,-840.19 -5728.99,-1197.7 146.92,-241.95 307.18,-508.04 481.21,-789.53 129.49,-209.43 260.03,-425.72 387.73,-640.5 4229.62,1249.34 5620.26,-410.43 5620.26,-410.43 -1974.45,1380.46 -4829.67,438.85 -5490.61,191.29 456.97,-776.26 857.57,-1494.68 1009.04,-1749.93 35.26,-59.43 78.2,-131.33 127,-213.22 3350.14,676.03 4448.05,-2034.65 4413.18,-1977.6 -1408.43,2304.55 -3745.37,1962.66 -4328.42,1835.05 309.48,-521.6 786.81,-1341.22 1183.07,-2147.16 1230.1,-411.93 2068.57,-1466.66 2068.57,-1466.66 -992.82,918.23 -1690.89,1206.13 -1984.41,1293.59 333.06,-691.01 712.58,-1465.66 811.71,-1707.29 273.06,-665.71 519.98,-1602.73 519.98,-1602.73 0,0 -297.71,881.23 -821.21,1972.95 -63.13,131.67 -129.04,265.11 -196.51,399.16 -214.81,-407.23 -137.66,-1358 -137.66,-1358 -170.81,864.14 -33.25,1391.34 29.77,1570.06 -320.26,622.23 -671.06,1247.67 -979.22,1776.9 -592.1,-1158.52 -323.41,-2678.84 -323.41,-2678.84 -324.05,1428.65 92.01,2602.33 204.76,2881.44 -167.2,284.08 -317.76,533.3 -438.31,729.54 -224.84,365.97 -512.8,834.2 -826.61,1334.56 -1724.41,-1616.02 -1640.41,-4739.56 -1643.65,-4680.86 -161.67,2926.54 1178.05,4572.38 1494.38,4918.07 -372.03,589.59 -771,1207.66 -1139.22,1745.52 -2814,-2660.48 -2865.76,-5390.79 -2865.76,-5390.79 -10.63,2749.04 2284.3,5147 2730.27,5586.96 -285.76,410.16 -547.51,761.05 -756.34,998.19 -3040.51,-1515.18 -4015.08,-3988.47 -4015.08,-3988.47 614.71,2207.05 3211.44,3785.55 3861.76,4151.22 -65.25,62.55 -134.85,136.83 -207.06,219.15 -144.8,-25.05 -515.18,-53.75 -1265.69,80.48 -1025.69,183.52 -1431.3,876.37 -2447.5,383.79 0,0 542.57,494.2 1493.24,97.2 962.17,-401.79 1778.01,-412.58 2082.41,-398.92 341.57,-44.46 438.82,407.9 621.03,146.83 499.57,605.57 998.99,1064.63 1478.46,1412.06l351.86 0c-854,-578.93 -1486.13,-1248.58 -1741.91,-1538.71z"/>
    </g>
   </g>
   <g>
    <polygon class="fil3" points="35064.16,7698.18 34970.45,7698.18 34970.45,4961.95 35064.16,4961.95 "/>
    <polygon class="fil3" points="35663.23,7698.18 35569.35,7698.18 35569.35,5660.2 35663.23,5660.2 "/>
    <path class="fil3" d="M36464.03 7745.12c-188.81,0 -342.66,-153.85 -342.66,-343.67 0,-188.81 153.85,-342.63 342.66,-342.63 188.68,0 342.54,153.82 342.54,342.63 0,189.82 -153.86,343.67 -342.54,343.67zm0 -592.47l0 0c-137.54,0 -248.79,111.29 -248.79,248.8 0,137.41 111.26,249.8 248.79,249.8 137.41,0 248.67,-112.38 248.67,-249.8 0,-137.51 -111.26,-248.8 -248.67,-248.8z"/>
   </g>
   <g>
    <polygon class="fil3" points="53193.36,19056.69 53099.64,19056.69 53099.64,15389.83 53193.36,15389.83 "/>
    <polygon class="fil3" points="53793.52,19056.69 53699.69,19056.69 53699.69,16088.04 53793.52,16088.04 "/>
    <path class="fil3" d="M52098.09 19103.59c-188.81,0 -342.66,-153.82 -342.66,-342.51 0,-189.95 153.85,-343.77 342.66,-343.77 188.68,0 342.51,153.82 342.51,343.77 0,188.68 -153.82,342.51 -342.51,342.51zm0 -592.43l0 0c-137.54,0 -248.83,112.39 -248.83,249.92 0,137.41 111.29,248.67 248.83,248.67 137.41,0 248.67,-111.26 248.67,-248.67 0,-137.54 -111.26,-249.92 -248.67,-249.92z"/>
   </g>
   <path class="fil3" d="M36952.07 2575.78c-188.72,0 -342.54,-153.27 -342.54,-341.96 0,-188.81 153.82,-342.66 342.54,-342.66 188.81,0 342.63,153.85 342.63,342.66 0,188.69 -153.82,341.96 -342.63,341.96zm0 -591.88l0 0c-137.41,0 -248.7,112.39 -248.7,249.92 0,137.41 111.28,249.22 248.7,249.22 137.51,0 248.8,-111.81 248.8,-249.22 0,-137.54 -111.29,-249.92 -248.8,-249.92z"/>
   <g>
    <path class="fil3" d="M27609.73 16529.46c-189.82,0 -343.67,-153.73 -343.67,-342.53 0,-188.69 153.85,-342.54 343.67,-342.54 188.68,0 342.51,153.85 342.51,342.54 0,188.81 -153.82,342.53 -342.51,342.53zm0 -591.24l0 0c-137.41,0 -249.8,111.29 -249.8,248.71 0,137.54 112.39,248.79 249.8,248.79 137.5,0 248.79,-111.26 248.79,-248.79 0,-137.41 -111.29,-248.71 -248.79,-248.71z"/>
    <g>
     <polygon class="fil3" points="27609.4,5030.67 27609.4,15395.72 "/>
     <path class="fil3" d="M27644.72 15317.41l-69.85 0 0 -232.38 69.85 0 0 232.38zm0 -558.61l0 0 -69.85 0 0 -232.38 69.85 0 0 232.38zm0 -558.6l0 0 -69.85 0 0 -232.35 69.85 0 0 232.35zm0 -558.58l0 0 -69.85 0 0 -232.38 69.85 0 0 232.38zm0 -558.61l0 0 -69.85 0 0 -232.38 69.85 0 0 232.38zm0 -558.6l0 0 -69.85 0 0 -232.38 69.85 0 0 232.38zm0 -558.61l0 0 -69.85 0 0 -232.35 69.85 0 0 232.35zm0 -558.58l0 0 -69.85 0 0 -232.38 69.85 0 0 232.38zm0 -558.6l0 0 -69.85 0 0 -232.38 69.85 0 0 232.38zm0 -558.61l0 0 -69.85 0 0 -232.38 69.85 0 0 232.38zm0 -558.61l0 0 -69.85 0 0 -232.35 69.85 0 0 232.35zm0 -558.57l0 0 -69.85 0 0 -232.38 69.85 0 0 232.38zm0 -558.61l0 0 -69.85 0 0 -232.38 69.85 0 0 232.38zm0 -558.61l0 0 -69.85 0 0 -232.38 69.85 0 0 232.38zm0 -558.6l0 0 -69.85 0 0 -232.38 69.85 0 0 232.38zm0 -558.58l0 0 -69.85 0 0 -232.38 69.85 0 0 232.38zm0 -558.6l0 0 -69.85 0 0 -232.39 69.85 0 0 232.39zm0 -558.61l0 0 -69.85 0 0 -232.38 69.85 0 0 232.38zm0 -558.61l0 0 -69.85 0 0 -232.38 69.85 0 0 232.38z"/>
    </g>
   </g>
   <g>
    <path class="fil3" d="M38656.5 10590.5c-188.81,0 -342.08,-153.83 -342.08,-342.54 0,-188.78 153.27,-342.63 342.08,-342.63 188.69,0 342.54,153.85 342.54,342.63 0,188.71 -153.85,342.54 -342.54,342.54zm0 -592.44l0 0c-137.51,0 -249.34,112.39 -249.34,249.9 0,137.41 111.84,249.83 249.34,249.83 137.41,0 249.8,-112.42 249.8,-249.83 0,-137.51 -112.39,-249.9 -249.8,-249.9z"/>
    <g>
     <polygon class="fil3" points="38656.62,4677.62 38656.62,9456.66 "/>
     <path class="fil3" d="M38691.36 9379.45l-69.82 0 0 -232.94 69.82 0 0 232.94zm0 -558.58l0 0 -69.82 0 0 -232.94 69.82 0 0 232.94zm0 -558.61l0 0 -69.82 0 0 -232.93 69.82 0 0 232.93zm0 -558.6l0 0 -69.82 0 0 -232.94 69.82 0 0 232.94zm0 -558.61l0 0 -69.82 0 0 -232.94 69.82 0 0 232.94zm0 -558.57l0 0 -69.82 0 0 -232.94 69.82 0 0 232.94zm0 -558.61l0 0 -69.82 0 0 -232.94 69.82 0 0 232.94zm0 -558.61l0 0 -69.82 0 0 -232.94 69.82 0 0 232.94zm0 -558.61l0 0 -69.82 0 0 -232.93 69.82 0 0 232.93z"/>
    </g>
   </g>
   <g>
    <path class="fil3" d="M32891.55 11955.34c-188.81,0 -342.08,-153.85 -342.08,-342.54 0,-188.81 153.28,-342.66 342.08,-342.66 188.69,0 342.54,153.86 342.54,342.66 0,188.69 -153.85,342.54 -342.54,342.54zm0 -591.33l0 0c-137.54,0 -249.25,111.26 -249.25,248.79 0,137.41 111.71,248.68 249.25,248.68 137.41,0 249.8,-111.26 249.8,-248.68 0,-137.54 -112.39,-248.79 -249.8,-248.79z"/>
    <path class="fil3" d="M32926.41 9921.7l-69.82 0 0 -232.38 69.82 0 0 232.38zm0 -558.61l0 0 -69.82 0 0 -232.38 69.82 0 0 232.38zm0 -558.61l0 0 -69.82 0 0 -232.38 69.82 0 0 232.38zm0 -558.6l0 0 -69.82 0 0 -232.35 69.82 0 0 232.35zm0 -558.58l0 0 -69.82 0 0 -232.38 69.82 0 0 232.38zm0 -558.61l0 0 -69.82 0 0 -232.38 69.82 0 0 232.38zm0 -558.6l0 0 -69.82 0 0 -232.38 69.82 0 0 232.38zm0 -558.61l0 0 -69.82 0 0 -232.38 69.82 0 0 232.38zm0 -558.58l0 0 -69.82 0 0 -232.38 69.82 0 0 232.38zm0 -558.6l0 0 -69.82 0 0 -232.38 69.82 0 0 232.38zm0 -558.61l0 0 -69.82 0 0 -232.38 69.82 0 0 232.38zm0 -558.61l0 0 -69.82 0 0 -232.38 69.82 0 0 232.38zm0 -558.6l0 0 -69.82 0 0 -232.35 69.82 0 0 232.35zm0 -558.58l0 0 -69.82 0 0 -232.38 69.82 0 0 232.38zm0 -558.61l0 0 -69.82 0 0 -232.38 69.82 0 0 232.38z"/>
   </g>
   <g>
    <path class="fil3" d="M30436.53 684.62c-189.82,0 -343.67,-153.82 -343.67,-342.54 0,-188.81 153.85,-342.08 343.67,-342.08 188.78,0 342.63,153.28 342.63,342.08 0,188.72 -153.85,342.54 -342.63,342.54zm0 -591.88l0 0c-137.44,0 -249.83,111.84 -249.83,249.34 0,137.41 112.39,249.8 249.83,249.8 137.51,0 248.8,-112.39 248.8,-249.8 0,-137.5 -111.29,-249.34 -248.8,-249.34z"/>
    <path class="fil3" d="M30471.49 5087.39l-69.82 0 0 -232.94 69.82 0 0 232.94zm0 -558.58l0 0 -69.82 0 0 -232.93 69.82 0 0 232.93zm0 -558.6l0 0 -69.82 0 0 -232.94 69.82 0 0 232.94zm0 -558.61l0 0 -69.82 0 0 -232.94 69.82 0 0 232.94zm0 -558.61l0 0 -69.82 0 0 -232.94 69.82 0 0 232.94zm0 -558.57l0 0 -69.82 0 0 -232.94 69.82 0 0 232.94zm0 -558.61l0 0 -69.82 0 0 -232.94 69.82 0 0 232.94zm0 -558.61l0 0 -69.82 0 0 -232.94 69.82 0 0 232.94z"/>
   </g>
   <g>
    <path class="fil4" d="M52608.78 26307.58l-10186.44 0c-91.52,0 -165.71,74.19 -165.71,165.7l0 17440.27c0,91.52 74.19,165.71 165.71,165.71l10186.44 0c91.52,0 165.71,-74.19 165.71,-165.71l0 -17440.27c0,-91.51 -74.19,-165.7 -165.71,-165.7z"/>
    <polygon class="fil5" points="42967.25,43415.88 52063.83,43415.88 52063.83,26970.81 42967.25,26970.81 "/>
    <g>
     <polygon class="fil4" points="43524.73,31998.65 51673.71,31998.65 51673.71,30150.91 43524.73,30150.91 "/>
     <polygon class="fil4" points="43441.07,31914.98 51590.02,31914.98 51590.02,30067.25 43441.07,30067.25 "/>
     <g>
      <g>
       <path class="fil6" d="M44367.55 30717.38c-151.17,0 -273.73,122.56 -273.73,273.72 0,151.2 122.56,273.76 273.73,273.76 151.19,0 273.75,-122.56 273.75,-273.76 0,-151.16 -122.56,-273.72 -273.75,-273.72z"/>
       <path class="fil6" d="M45457.26 30717.38c-151.2,0 -273.76,122.56 -273.76,273.72 0,151.2 122.56,273.76 273.76,273.76 151.16,0 273.72,-122.56 273.72,-273.76 0,-151.16 -122.56,-273.72 -273.72,-273.72z"/>
      </g>
      <g>
       <g>
        <path class="fil5" d="M50874.1 30738.43l-4348.22 0c-34.9,0 -63.19,28.3 -63.19,63.16 0,34.89 28.29,63.19 63.19,63.19l4348.22 0c34.9,0 63.16,-28.3 63.16,-63.19 0,-34.87 -28.27,-63.16 -63.16,-63.16z"/>
       </g>
       <g>
        <path class="fil5" d="M50874.1 31117.45l-4348.22 0c-34.9,0 -63.19,28.27 -63.19,63.16 0,34.9 28.29,63.19 63.19,63.19l4348.22 0c34.9,0 63.16,-28.3 63.16,-63.19 0,-34.9 -28.27,-63.16 -63.16,-63.16z"/>
       </g>
      </g>
     </g>
    </g>
    <g>
     <polygon class="fil4" points="43524.73,29443.95 51673.71,29443.95 51673.71,27596.22 43524.73,27596.22 "/>
     <polygon class="fil4" points="43441.07,29360.29 51590.02,29360.29 51590.02,27512.55 43441.07,27512.55 "/>
     <g>
      <g>
       <path class="fil6" d="M44367.55 28162.68c-151.17,0 -273.73,122.56 -273.73,273.72 0,151.2 122.56,273.76 273.73,273.76 151.19,0 273.75,-122.56 273.75,-273.76 0,-151.16 -122.56,-273.72 -273.75,-273.72z"/>
       <path class="fil6" d="M45457.26 28162.68c-151.2,0 -273.76,122.56 -273.76,273.72 0,151.2 122.56,273.76 273.76,273.76 151.16,0 273.72,-122.56 273.72,-273.76 0,-151.16 -122.56,-273.72 -273.72,-273.72z"/>
      </g>
      <g>
       <g>
        <path class="fil5" d="M50874.1 28183.73l-4348.22 0c-34.9,0 -63.19,28.3 -63.19,63.16 0,34.89 28.29,63.19 63.19,63.19l4348.22 0c34.9,0 63.16,-28.3 63.16,-63.19 0,-34.87 -28.27,-63.16 -63.16,-63.16z"/>
       </g>
       <g>
        <path class="fil5" d="M50874.1 28562.76l-4348.22 0c-34.9,0 -63.19,28.27 -63.19,63.16 0,34.9 28.29,63.19 63.19,63.19l4348.22 0c34.9,0 63.16,-28.3 63.16,-63.19 0,-34.9 -28.27,-63.16 -63.16,-63.16z"/>
       </g>
      </g>
     </g>
    </g>
    <g>
     <polygon class="fil4" points="43524.73,34553.34 51673.71,34553.34 51673.71,32705.6 43524.73,32705.6 "/>
     <polygon class="fil4" points="43441.07,34469.68 51590.02,34469.68 51590.02,32621.94 43441.07,32621.94 "/>
     <g>
      <g>
       <g>
        <path class="fil6" d="M44367.55 33222.5c-151.17,0 -273.73,122.56 -273.73,273.73 0,151.2 122.56,273.73 273.73,273.73 151.19,0 273.75,-122.53 273.75,-273.73 0,-151.17 -122.56,-273.73 -273.75,-273.73z"/>
       </g>
       <g>
        <path class="fil6" d="M45457.26 33222.5c-151.2,0 -273.76,122.56 -273.76,273.73 0,151.2 122.56,273.73 273.76,273.73 151.16,0 273.72,-122.53 273.72,-273.73 0,-151.17 -122.56,-273.73 -273.72,-273.73z"/>
       </g>
      </g>
      <g>
       <path class="fil5" d="M50874.1 33243.56l-4348.22 0c-34.9,0 -63.19,28.3 -63.19,63.16 0,34.9 28.29,63.19 63.19,63.19l4348.22 0c34.9,0 63.16,-28.3 63.16,-63.19 0,-34.86 -28.27,-63.16 -63.16,-63.16z"/>
       <path class="fil5" d="M50874.1 33622.58l-4348.22 0c-34.9,0 -63.19,28.27 -63.19,63.16 0,34.89 28.29,63.16 63.19,63.16l4348.22 0c34.9,0 63.16,-28.27 63.16,-63.16 0,-34.9 -28.27,-63.16 -63.16,-63.16z"/>
      </g>
     </g>
    </g>
    <g>
     <polygon class="fil4" points="43524.73,37108.03 51673.71,37108.03 51673.71,35260.3 43524.73,35260.3 "/>
     <polygon class="fil4" points="43441.07,37024.37 51590.02,37024.37 51590.02,35176.64 43441.07,35176.64 "/>
     <g>
      <g>
       <g>
        <path class="fil6" d="M44367.55 35822.39c-151.17,0 -273.73,122.53 -273.73,273.72 0,151.2 122.56,273.73 273.73,273.73 151.19,0 273.75,-122.53 273.75,-273.73 0,-151.2 -122.56,-273.72 -273.75,-273.72z"/>
       </g>
       <g>
        <path class="fil6" d="M45457.26 35822.39c-151.2,0 -273.76,122.53 -273.76,273.72 0,151.2 122.56,273.73 273.76,273.73 151.16,0 273.72,-122.53 273.72,-273.73 0,-151.2 -122.56,-273.72 -273.72,-273.72z"/>
       </g>
      </g>
      <g>
       <path class="fil5" d="M50874.1 35843.44l-4348.22 0c-34.9,0 -63.19,28.27 -63.19,63.16 0,34.9 28.29,63.16 63.19,63.16l4348.22 0c34.9,0 63.16,-28.27 63.16,-63.16 0,-34.89 -28.27,-63.16 -63.16,-63.16z"/>
       <path class="fil5" d="M50874.1 36222.47l-4348.22 0c-34.9,0 -63.19,28.27 -63.19,63.16 0,34.9 28.29,63.16 63.19,63.16l4348.22 0c34.9,0 63.16,-28.26 63.16,-63.16 0,-34.9 -28.27,-63.16 -63.16,-63.16z"/>
      </g>
     </g>
    </g>
    <polygon class="fil4" points="43441.07,42847.44 51590.02,42847.44 51590.02,37683.26 43441.07,37683.26 "/>
    <g>
     <g>
      <polygon class="fil6" points="50991.54,40772.18 51347.7,40772.18 51347.7,40651.11 50991.54,40651.11 "/>
      <polygon class="fil6" points="50991.54,40476.18 51347.7,40476.18 51347.7,40355.08 50991.54,40355.08 "/>
      <polygon class="fil6" points="50991.54,40180.18 51347.7,40180.18 51347.7,40059.05 50991.54,40059.05 "/>
      <polygon class="fil6" points="50991.54,39884.14 51347.7,39884.14 51347.7,39763.04 50991.54,39763.04 "/>
      <polygon class="fil6" points="50991.54,39292.11 51347.7,39292.11 51347.7,39171.01 50991.54,39171.01 "/>
      <polygon class="fil6" points="50991.54,39588.1 51347.7,39588.1 51347.7,39467.01 50991.54,39467.01 "/>
      <polygon class="fil6" points="50991.54,38700.07 51347.7,38700.07 51347.7,38578.97 50991.54,38578.97 "/>
      <polygon class="fil6" points="50991.54,38996.07 51347.7,38996.07 51347.7,38874.97 50991.54,38874.97 "/>
      <polygon class="fil4" points="50991.54,38108.03 51347.7,38108.03 51347.7,37986.94 50991.54,37986.94 "/>
      <polygon class="fil4" points="50991.54,38404.03 51347.7,38404.03 51347.7,38282.94 50991.54,38282.94 "/>
     </g>
     <polygon class="fil4" points="50991.54,42538.82 51347.7,42538.82 51347.7,41356.33 50991.54,41356.33 "/>
    </g>
    <g>
     <path class="fil4" d="M50335.73 38717.67c-151.2,0 -273.76,122.56 -273.76,273.76 0,151.16 122.56,273.72 273.76,273.72 151.17,0 273.73,-122.56 273.73,-273.72 0,-151.2 -122.56,-273.76 -273.73,-273.76z"/>
     <path class="fil6" d="M50335.73 39991.64c-151.2,0 -273.76,122.53 -273.76,273.73 0,151.16 122.56,273.72 273.76,273.72 151.17,0 273.73,-122.56 273.73,-273.72 0,-151.2 -122.56,-273.73 -273.73,-273.73z"/>
     <path class="fil4" d="M50335.73 41265.55c-151.2,0 -273.76,122.56 -273.76,273.76 0,151.16 122.56,273.73 273.76,273.73 151.17,0 273.73,-122.57 273.73,-273.73 0,-151.2 -122.56,-273.76 -273.73,-273.76z"/>
    </g>
    <g>
     <g>
      <polygon class="fil5" points="43727.87,42577.29 43971.84,42577.29 43971.84,37953.42 43727.87,37953.42 "/>
     </g>
     <g>
      <polygon class="fil5" points="44204.07,42577.29 44448.03,42577.29 44448.03,37953.42 44204.07,37953.42 "/>
     </g>
     <g>
      <polygon class="fil5" points="44680.27,42577.29 44924.2,42577.29 44924.2,37953.42 44680.27,37953.42 "/>
     </g>
     <g>
      <polygon class="fil5" points="45156.42,42577.29 45400.39,42577.29 45400.39,37953.42 45156.42,37953.42 "/>
     </g>
     <g>
      <polygon class="fil5" points="45632.62,42577.29 45876.59,42577.29 45876.59,37953.42 45632.62,37953.42 "/>
     </g>
     <g>
      <polygon class="fil5" points="46108.82,42577.29 46352.79,42577.29 46352.79,37953.42 46108.82,37953.42 "/>
     </g>
     <g>
      <polygon class="fil5" points="46584.98,42577.29 46828.95,42577.29 46828.95,37953.42 46584.98,37953.42 "/>
     </g>
     <g>
      <polygon class="fil5" points="47061.18,42577.29 47305.15,42577.29 47305.15,37953.42 47061.18,37953.42 "/>
     </g>
     <g>
      <polygon class="fil5" points="47537.37,42577.29 47781.34,42577.29 47781.34,37953.42 47537.37,37953.42 "/>
     </g>
     <g>
      <polygon class="fil5" points="48013.57,42577.29 48257.5,42577.29 48257.5,37953.42 48013.57,37953.42 "/>
     </g>
     <g>
      <polygon class="fil5" points="48489.73,42577.29 48733.7,42577.29 48733.7,37953.42 48489.73,37953.42 "/>
     </g>
     <g>
      <polygon class="fil5" points="48965.93,42577.29 49209.9,42577.29 49209.9,37953.42 48965.93,37953.42 "/>
     </g>
     <g>
      <polygon class="fil5" points="49442.13,42577.29 49686.06,42577.29 49686.06,37953.42 49442.13,37953.42 "/>
     </g>
    </g>
   </g>
   <g>
    <path class="fil7" d="M43072.31 18236.31l-32615.95 0c-1025.2,0 -1856.35,831.11 -1856.35,1856.37l0 20671.7c0,1025.24 831.14,1856.38 1856.35,1856.38l32615.95 0c1025.24,0 1856.38,-831.14 1856.38,-1856.38l0 -20671.7c0,-1025.26 -831.14,-1856.37 -1856.38,-1856.37zm282.55 22181.48l0 0 -33181.03 0 0 -20680.99 33181.03 0 0 20680.99z"/>
    <path class="fil8" d="M28409.67 30295.38c0,527.16 -313.3,954.53 -699.75,954.53 -386.48,0 -699.78,-427.37 -699.78,-954.53 0,-527.16 313.3,-954.56 699.78,-954.56 386.45,0 699.75,427.39 699.75,954.56z"/>
    <g>
     <path class="fil9" d="M28245.43 30634.93c0,-339.89 -275.56,-615.42 -615.45,-615.42 -339.91,0 -615.47,275.53 -615.47,615.42 0,264.01 166.53,488.51 400.04,575.93l-291.14 1422.63c-15.8,77.18 33.95,151.41 101.38,151.41l405.18 0 0.12 0 406.9 0c67.74,0 117.68,-74.23 101.81,-151.41l-292.43 -1423.03c232.96,-87.64 399.04,-311.89 399.04,-575.53z"/>
    </g>
    <path class="fil10" d="M49345.26 41641.85l-22559.03 0 -21.91 0 -22559.03 0c-93.81,0 -170.63,76.76 -170.63,170.6l0 878.59c149.94,688.6 1794.59,994.01 2815.98,1092.95l19913.68 0 21.91 0 19913.68 0c1021.39,-98.94 2666.04,-404.36 2815.92,-1092.95l0 -878.59c0,-93.84 -76.76,-170.6 -170.57,-170.6z"/>
    <path class="fil3" d="M6850.64 43784l19913.68 0 21.91 0 19913.68 0c1021.39,-98.94 2666.04,-404.36 2815.92,-1092.95l0 -70.28 -45481.17 0 0 70.28c149.94,688.6 1794.59,994.01 2815.98,1092.95z"/>
    <path class="fil3" d="M32049.74 41641.85l-5184.53 0 -5.04 0 -5184.5 0c-21.57,0 -39.2,17.85 -39.2,39.67l0 204.09c34.47,159.93 412.39,230.88 647.16,253.86l4576.53 0 5.04 0 4576.57 0c234.7,-22.98 612.72,-93.93 647.16,-253.86l0 -204.09c0,-21.82 -17.66,-39.67 -39.2,-39.67z"/>
    <g>
     <polygon class="fil3" points="43354.86,40395.6 10161.86,40395.6 10161.86,19736.79 43354.86,19736.79 "/>
    </g>
   </g>
   <g>
    <g>
     <g>
      <polygon class="fil5" points="22069.25,30223.21 22069.25,35073.44 26237.49,35073.44 26237.49,31377.25 25083.46,30223.21 "/>
      <polygon class="fil11" points="22239.97,30052.49 22239.97,34902.75 26408.18,34902.75 26408.18,31206.53 25254.15,30052.49 "/>
      <polygon class="fil5" points="25254.15,31206.53 26408.18,31206.53 25254.15,30052.49 "/>
      <g>
       <polygon class="fil5" points="22869.66,31608.93 25778.47,31608.93 25778.47,31380.88 22869.66,31380.88 "/>
       <polygon class="fil5" points="22869.66,32179.05 25778.47,32179.05 25778.47,31951.01 22869.66,31951.01 "/>
       <polygon class="fil5" points="22869.66,32749.18 25778.47,32749.18 25778.47,32521.13 22869.66,32521.13 "/>
       <polygon class="fil5" points="22869.66,33319.31 25778.47,33319.31 25778.47,33091.26 22869.66,33091.26 "/>
       <polygon class="fil5" points="23502.33,33889.43 25145.82,33889.43 25145.82,33661.39 23502.33,33661.39 "/>
      </g>
     </g>
    </g>
    <g>
     <g>
      <polygon class="fil5" points="24009.36,28133.16 24009.36,34649.9 29609.73,34649.9 29609.73,29683.7 28059.19,28133.16 "/>
      <polygon class="fil11" points="24238.72,27903.8 24238.72,34420.54 29839.08,34420.54 29839.08,29454.34 28288.55,27903.8 "/>
      <polygon class="fil5" points="28288.55,29454.34 29839.08,29454.34 28288.55,27903.8 "/>
      <g>
       <polygon class="fil5" points="25084.77,29995.02 28993.03,29995.02 28993.03,29688.62 25084.77,29688.62 "/>
       <polygon class="fil5" points="25084.77,30761.04 28993.03,30761.04 28993.03,30454.62 25084.77,30454.62 "/>
       <polygon class="fil5" points="25084.77,31527.06 28993.03,31527.06 28993.03,31220.64 25084.77,31220.64 "/>
       <polygon class="fil5" points="25084.77,32293.06 28993.03,32293.06 28993.03,31986.67 25084.77,31986.67 "/>
       <polygon class="fil5" points="25934.8,33059.09 28143.01,33059.09 28143.01,32752.66 25934.8,32752.66 "/>
      </g>
     </g>
    </g>
    <g>
     <g>
      <polygon class="fil5" points="27315.69,26128.12 27315.69,34019.7 34097.59,34019.7 34097.59,28005.8 32219.91,26128.12 "/>
      <polygon class="fil11" points="27593.45,25850.39 27593.45,33741.97 34375.32,33741.97 34375.32,27728.04 32497.67,25850.39 "/>
      <polygon class="fil5" points="32497.67,27728.04 34375.32,27728.04 32497.67,25850.39 "/>
      <g>
       <polygon class="fil5" points="28617.98,28382.78 33350.79,28382.78 33350.79,28011.73 28617.98,28011.73 "/>
       <polygon class="fil5" points="28617.98,29310.42 33350.79,29310.42 33350.79,28939.37 28617.98,28939.37 "/>
       <polygon class="fil5" points="28617.98,30238.03 33350.79,30238.03 33350.79,29866.98 28617.98,29866.98 "/>
       <polygon class="fil5" points="28617.98,31165.64 33350.79,31165.64 33350.79,30794.59 28617.98,30794.59 "/>
       <polygon class="fil5" points="29647.34,32093.25 32321.42,32093.25 32321.42,31722.23 29647.34,31722.23 "/>
      </g>
     </g>
    </g>
   </g>
   <g>
    <g>
     <g>
      <g>
       <path class="fil12" d="M14172.76 11305.83c246.78,96.86 583.73,205.06 843.88,144.19 23.78,-5.52 47.33,-11.76 70.77,-18.27 -51.86,260.28 -69.58,526.71 -51.06,791.03 -179.24,161.21 -413.37,242.34 -650.79,305.56 -258.85,-69.18 -532.11,-255.94 -734.37,-424.62 14.03,-355.77 57.17,-717.32 99.55,-1074.74 117.25,116.39 257.11,212.12 422.02,276.84z"/>
      </g>
      <g>
       <path class="fil13" d="M15016.64 11450.02c-260.16,60.87 -597.11,-47.33 -843.88,-144.19 -164.91,-64.72 -304.77,-160.45 -422.02,-276.84 -15.34,129.41 -30.74,259.34 -44.86,389.33 55.61,70.92 115.07,138.76 181.9,200.33 154.13,142.08 351.95,251.12 566.06,263.55 213.44,12.4 421.9,-72.23 594.2,-194.25 9.56,-85.86 22.46,-171.36 39.36,-256.19 -23.44,6.51 -46.99,12.75 -70.77,18.27z"/>
      </g>
      <g>
       <path class="fil12" d="M13201.21 9905.75c-73.61,-80.76 -174.57,-132.28 -295.51,-87.14 -72.45,27.04 -119.36,103.44 -129.29,180.86 -9.9,77.46 11.74,155.5 42.32,226.88 37.16,86.69 91.27,170.63 173.29,215.67 81.98,45.04 191.04,100.87 252.92,29.3 85.16,451.82 330.9,916.88 802.79,1102.09 223.31,87.64 528.26,185.58 763.67,130.51 259.52,-60.72 500.06,-182.18 644.78,-402.8 131.67,-200.76 260.89,-537.46 311.04,-745.95 117.07,48.92 204.15,-28.78 303.03,-92.68 94.14,-60.8 154.74,-165.65 181.87,-275.16 27.59,-111.29 8.25,-254.6 -95.46,-299.49 -109.73,-47.46 -226.7,45.71 -311.68,131.6 33.22,-300.28 -10.2,-603.98 -85.28,-897.35 -300.49,48.92 -619.13,-71.87 -827.19,-284.09 -40.74,53.87 -153.18,46.66 -222.67,51.83 -211.7,15.73 -428.41,-37.56 -605.67,-148.91 -14.88,222.37 -163.17,446.8 -386.72,512.47 -31.54,150.74 -106.1,315.8 -175.76,454.47 -62.25,124.09 -153.92,242.26 -243.72,349.6 -22.74,-51.83 -55.43,-106.37 -96.75,-151.72z"/>
      </g>
      <g>
       <path class="fil14" d="M14298.31 9581.3c-74.46,13.17 -148.93,26.34 -223.4,39.54 -41.61,7.37 -91.97,11.98 -119.17,-18.91 -107.9,-122.66 141.97,-206.94 228.2,-230.12 71.47,-19.22 144.65,-42.75 192.59,24.41 49.99,70.07 12.38,169.04 -78.22,185.08z"/>
      </g>
      <g>
       <path class="fil14" d="M14097.16 10061.38c0,70.83 60.29,128.24 134.67,128.24 74.34,0 134.66,-57.42 134.66,-128.24 0,-70.86 -60.32,-128.28 -134.66,-128.28 -74.38,0 -134.67,57.42 -134.67,128.28z"/>
      </g>
      <g>
       <path class="fil14" d="M15176.12 10189.62c0,70.83 60.32,128.28 134.67,128.28 74.37,0 134.66,-57.45 134.66,-128.28 0,-70.83 -60.29,-128.24 -134.66,-128.24 -74.35,0 -134.67,57.42 -134.67,128.24z"/>
      </g>
      <g>
       <path class="fil14" d="M15311.12 9733.17c74.46,13.17 148.96,26.37 223.43,39.55 41.62,7.36 91.97,11.97 119.17,-18.92 107.9,-122.66 -142,-206.93 -228.2,-230.12 -71.47,-19.22 -144.68,-42.75 -192.59,24.41 -50.02,70.07 -12.41,169.04 78.2,185.08z"/>
      </g>
      <g>
       <path class="fil15" d="M14777.51 10594.75c-8.28,0 -16.32,-4.34 -20.69,-12.07 -6.48,-11.43 -2.48,-25.94 8.95,-32.39 28.48,-16.14 71.78,-21.03 117.61,-26.22 44.62,-5.04 105.7,-11.95 115.93,-31.44 11.89,-22.59 -8.01,-50.51 -37.4,-87.51 -4.76,-5.99 -9.44,-11.89 -13.78,-17.66 -100.38,-132.86 -30.34,-354.34 20.81,-516.04 7.94,-25.12 15.37,-48.59 21.48,-69.73 3.67,-12.59 16.8,-19.86 29.46,-16.22 12.58,3.63 19.86,16.83 16.22,29.45 -6.2,21.48 -13.75,45.31 -21.82,70.83 -48.03,151.83 -113.82,359.77 -28.23,473.05 4.13,5.47 8.59,11.09 13.11,16.75 30.92,38.99 69.46,87.49 42.23,139.25 -21.97,41.77 -85.43,48.95 -152.66,56.53 -39.09,4.43 -79.51,9.01 -99.53,20.35 -3.69,2.08 -7.73,3.09 -11.7,3.09z"/>
      </g>
      <g>
       <g>
        <path class="fil15" d="M13159.31 10249.79c-0.49,0 -1,0 -1.53,-0.03 -13.08,-0.85 -23.04,-12.13 -22.21,-25.24 6.57,-103.62 -70.19,-208.98 -174.72,-239.9 -12.59,-3.73 -19.77,-16.96 -16.04,-29.54 3.72,-12.59 16.95,-19.77 29.52,-16.04 127.03,37.55 216.74,161.58 208.7,288.48 -0.8,12.62 -11.27,22.28 -23.71,22.28zm2725.81 43.08l0 0c26.58,-88.64 99.15,-164.91 189.42,-199.01 12.28,-4.64 18.48,-18.33 13.84,-30.61 -4.64,-12.29 -18.33,-18.46 -30.65,-13.85 -103.83,39.21 -187.43,127.27 -218.17,229.85 -3.76,12.56 3.39,25.82 15.95,29.58 2.29,0.67 4.58,1 6.84,1 10.24,0 19.68,-6.66 22.76,-16.96z"/>
       </g>
      </g>
      <g>
       <g>
        <path class="fil16" d="M14231.83 10632.33c225.78,125.28 496.85,174.94 755.33,138.36 -38.59,35.41 -67.25,89.6 -91.12,135.28 -29.8,56.96 -48.92,122.68 -100.66,162.93 -50.17,39.05 -122.56,44.8 -184.44,26.55 -61.88,-18.24 -114.65,-57.5 -160.49,-101.11 -100.35,-95.52 -180.53,-231.83 -218.63,-362.01z"/>
       </g>
       <g>
        <path class="fil17" d="M14231.83 10632.33c7.48,25.58 17.05,51.4 27.62,77.1 142.03,96.22 308.23,160.21 480.96,182.79 52.5,6.88 106.22,9.84 159.23,6.91 23.17,-44.19 50.82,-94.75 87.51,-128.43 -258.48,36.58 -529.55,-13.08 -755.33,-138.36z"/>
       </g>
      </g>
      <g>
       <path class="fil14" d="M16156.65 9887.85c-109.73,-47.46 -226.7,45.71 -311.68,131.6 33.22,-300.28 -10.2,-603.98 -85.28,-897.35 -300.49,48.92 -619.13,-71.87 -827.19,-284.09 -40.74,53.87 -153.18,46.66 -222.67,51.83 -211.7,15.73 -428.41,-37.56 -605.67,-148.91 -14.88,222.37 -163.17,446.8 -386.72,512.47 -31.54,150.74 -106.1,315.8 -175.76,454.44 -62.25,124.12 -153.92,242.28 -243.72,349.63 -22.74,-51.83 -55.43,-106.37 -96.75,-151.72 -73.61,-80.76 -174.57,-132.28 -295.51,-87.14 -29.76,11.12 -54.94,30.83 -75.29,55.24 -60.53,-189.85 -51.15,-401.88 30.95,-583.36 -100.35,-136.16 -53.26,-313.02 95.06,-400.9 -51.55,-127.21 -91.82,-264.96 -64.99,-398.92 26.83,-133.96 157.85,-269.36 300.77,-277.64 17.57,-143.8 102.95,-278.86 228.2,-360.87 125.25,-82.05 303.76,-76.37 451.01,-40.49 44.7,-154.15 245.56,-216.49 406.16,-169.89 95.55,-192.69 319.78,-320.29 543.18,-309.14 223.4,11.16 459.36,220.41 533.22,421.53 154.74,-56.01 334.05,-47 481.73,24.2 147.68,71.2 294.74,258.81 338.93,410.74 193.64,30.28 340.43,157.06 375.11,339.7 19.49,102.67 11.21,204.24 -23.74,303.22 -8.1,22.94 -131.27,233.14 -134.91,228.53 137.39,175.37 92.01,449.03 -51.48,619.9 74.86,60.11 96.16,166.84 68.23,256.22 -24.2,77.46 -79.81,142.57 -146.21,193.66 9.28,-98.81 -18.31,-204.97 -104.96,-242.49z"/>
      </g>
     </g>
     <g>
      <g>
       <g>
        <polygon class="fil12" points="15362.97,40233.13 15538.55,42370.32 16602.08,42592.14 17169.55,41702.81 17043.59,40079.49 "/>
       </g>
       <g>
        <path class="fil13" d="M17076.62 40506.37c0,0 -1143.89,732.99 -1650.46,496.85l-63.19 -770.09 1680.62 -153.64 33.03 426.88z"/>
       </g>
      </g>
      <g>
       <g>
        <g>
         <path class="fil18" d="M21120.01 43935.84l-4981.69 -7.61c-133.17,4.91 -452.27,29.39 -564.5,-61.42 -109.18,-88.68 -156.33,-289.44 -171.09,-531.53l5518.14 79.39c109.37,144.96 178.85,325.92 199.14,521.17z"/>
         <path class="fil7" d="M20920.87 43414.66l-5518.14 -79.39c-29.46,-481.85 69.49,-1127.24 59.92,-1379.61 111.44,110.09 248.98,160.64 395.8,216.95 751.6,289.49 1039.2,-305.94 1260.13,-890.3l26.67 -15.83c774.58,1321.46 2451.14,1179.7 3575.77,1954.87 76.42,52.83 143.38,118.25 199.84,193.3z"/>
        </g>
       </g>
      </g>
      <g>
       <path class="fil19" d="M17259.62 42399.35c-11.09,-0.22 -20.35,-8.86 -21.02,-20.2 -11.92,-212.46 121.77,-534.83 367.02,-577.22 11.76,-1.77 22.73,5.9 24.72,17.48 2.02,11.61 -5.9,22.55 -17.45,24.62 -218.78,37.65 -342.54,340.71 -331.66,532.79 0.73,11.79 -8.37,21.85 -20.05,22.43 -0.55,0.09 -1.04,0.12 -1.56,0.09z"/>
      </g>
      <g>
       <path class="fil19" d="M17600.09 42545.33c-10.97,-0.19 -20.11,-8.77 -20.94,-19.8 -12.71,-182.79 120.55,-459.57 366.35,-495.2 11.82,-1.62 22.49,6.29 24.24,18.09 1.65,11.7 -6.45,22.46 -18.09,24.11 -218.17,31.63 -341.16,287.63 -329.92,449.83 0.77,11.85 -8.13,22 -19.77,22.79 -0.7,0.06 -1.28,0.19 -1.87,0.19z"/>
      </g>
      <g>
       <path class="fil19" d="M17968.79 42737.04c-10.94,-0.15 -20.17,-8.65 -20.91,-19.86 -12.68,-182.74 120.64,-459.54 366.35,-495.17 11.82,-1.53 22.43,6.54 24.14,18.15 1.77,11.67 -6.3,22.39 -18.06,24.2 -218.15,31.53 -341.08,287.57 -329.86,449.82 0.8,11.77 -8.06,22 -19.86,22.74 -0.55,0 -1.19,0 -1.8,0.12z"/>
      </g>
     </g>
     <g>
      <g>
       <g>
        <polygon class="fil12" points="11404.9,36941.93 10088.18,38634.34 10721.2,39517.34 11740.69,39246.45 12746.43,37965.88 "/>
       </g>
       <g>
        <path class="fil13" d="M12481.84 38302.59c0,0 -1338.17,-234.28 -1551.49,-750.87l474.55 -609.79 1341.53 1023.95 -264.59 336.71z"/>
       </g>
      </g>
      <g>
       <g>
        <g>
         <path class="fil18" d="M13138.72 43563.59l-3662.99 -3376.27c-101.48,-86.45 -352.99,-284.42 -374.14,-427.15 -20.47,-139.16 80.67,-318.86 233.67,-507.15l4009.49 3792.19c-17.53,180.62 -88.89,360.97 -206.04,518.39z"/>
         <path class="fil7" d="M13344.73 43036.46l-4009.47 -3792.18c304.31,-374.75 813.85,-783.01 977.54,-975.4 7.58,156.48 74.68,286.74 144.69,427.67 357.54,721.69 972.19,477.78 1530.18,197.06l30.41 6.35c-323.78,1497.19 1006.63,2527.19 1310.24,3858.89 20.6,90.63 25.61,184.04 16.41,277.6z"/>
        </g>
       </g>
      </g>
      <g>
       <path class="fil19" d="M11335.78 39820.31c-8.01,-7.64 -8.95,-20.33 -1.8,-29.09 134.94,-164.55 451.59,-311.46 660.79,-176.71 9.86,6.63 12.77,19.62 6.35,29.61 -6.32,9.87 -19.55,12.56 -29.45,6.29 -186.61,-120.27 -482.8,19.1 -604.69,167.94 -7.51,9.14 -20.96,10.42 -30,2.93 -0.46,-0.34 -0.83,-0.61 -1.19,-0.98z"/>
      </g>
      <g>
       <path class="fil19" d="M11487.77 40158.08c-8.01,-7.55 -8.92,-20.07 -2.02,-28.75 114.38,-143.16 399.71,-256.77 604.75,-116.73 9.84,6.82 12.35,19.89 5.62,29.7 -6.69,9.78 -19.89,12.22 -29.58,5.56 -182.15,-124.4 -445.85,-19.16 -547.4,108.05 -7.45,9.17 -20.87,10.63 -29.98,3.36 -0.52,-0.42 -1.04,-0.79 -1.41,-1.19z"/>
      </g>
      <g>
       <path class="fil19" d="M11629.52 40548.78c-7.94,-7.52 -8.95,-20.02 -1.95,-28.78 114.28,-143.16 399.74,-256.71 604.71,-116.79 9.81,6.91 12.23,20.08 5.53,29.77 -6.57,9.81 -19.8,12.16 -29.61,5.62 -182.03,-124.42 -445.83,-19.06 -547.33,108.02 -7.37,9.2 -20.81,10.7 -30.04,3.27 -0.39,-0.34 -0.88,-0.7 -1.31,-1.1z"/>
      </g>
     </g>
     <path class="fil7" d="M10507.85 19051.65c0,0 -813.11,262.79 -2598.08,-2045.65l873.46 -1116.36 1478.24 1993.34 246.38 1168.67z"/>
     <g>
      <g>
       <path class="fil12" d="M10292.48 18030.41c0,0 -1508.7,3882.48 -4077.03,6200.63l-1015.43 -809.93c0,0 1881.56,-3778.73 3277.54,-6108.47 0,0 22.55,-133.17 458.75,-1216.61l1356.17 1934.39z"/>
      </g>
      <g>
       <path class="fil13" d="M8612.32 20231.08c0,0 -3.88,0.91 -11.19,2.68 -7.33,1.81 -18.21,3.8 -31.87,6.72 -27.47,5.32 -66.86,12.05 -114,16.96 -23.68,2.38 -49.32,4.1 -76.24,5.19 -27.04,0.95 -55.46,0.65 -84.76,-0.85 -29.34,-0.95 -59.19,-5.59 -89.38,-9.71 -29.98,-5.56 -60.47,-11.71 -89.6,-21.76 -29.67,-8.67 -58.03,-20.68 -85.37,-33.67 -6.64,-3.64 -13.27,-7.25 -19.87,-10.82 -6.63,-3.45 -13.41,-6.72 -19.59,-10.91 -12.5,-8.07 -25.48,-15.01 -36.91,-24.02 -11.58,-8.59 -23.28,-16.77 -33.76,-25.97 -10.66,-9.1 -21.67,-17.36 -30.86,-27.08 -19.59,-18.24 -36.27,-37.34 -52.09,-54.91 -7.33,-9.29 -14.24,-18.22 -20.9,-26.67 -6.88,-8.37 -13.14,-16.54 -18.34,-24.63 -10.51,-16.16 -21.33,-29.49 -27.96,-41.74 -14.61,-23.93 -23.35,-37.55 -23.35,-37.55 0,0 5.29,15.15 15.34,41.65 4.61,13.45 12.74,28.6 21.27,46.53 8.25,18.09 20.6,36.86 33.31,57.81 7.15,10.02 14.57,20.41 22.28,31.23 7.63,10.97 17.41,20.63 26.49,31.6 8.98,11.06 19.77,20.81 30.38,31.35 10.24,10.97 22.64,20.01 34.59,29.91 24.39,19.46 51.43,37.25 80.33,52.71 29.27,14.58 59.86,28.15 91.64,37.92 31.63,10.23 64.26,16.31 96.38,21.72 32.24,4.28 64.14,6.51 94.94,6.29 30.77,0.46 60.47,-2.04 88.34,-5.19 27.84,-3.09 53.93,-7.97 77.76,-13.14 47.57,-10.33 86.05,-23.59 112.39,-33.76 26.37,-10.36 40.61,-17.91 40.61,-17.91z"/>
      </g>
      <g>
       <path class="fil13" d="M8342.91 17539.31c0,0 1012.25,1210.44 1604.87,1287.41l560.07 -1171.97 -1674.29 -1025.33 -490.65 909.89z"/>
      </g>
     </g>
     <g>
      <g>
       <g>
        <g>
         <g>
          <path class="fil20" d="M10890.78 36801.27c1988.48,2132.67 2225.02,1632.86 2225.02,1632.86l4620.88 -4997.46c1277.48,-2167.23 810.82,-3391.39 810.82,-3391.39l-1388.99 -8768.83c0,0 -2537.27,1028.69 -3701.33,1644.41 -272.8,1982.58 481,3202.65 1858.07,6549.16 0,0 -2413.19,3496.45 -4424.46,7331.25z"/>
         </g>
        </g>
       </g>
       <path class="fil7" d="M15286.4 24039.54c0,0 2494.8,6263.51 2215.91,9442.81 -215.55,2458.78 -2215.91,-9442.81 -2215.91,-9442.81z"/>
       <polygon class="fil7" points="13887.54,31649.66 14301.13,37152.21 15915.01,35668.23 "/>
       <g>
        <path class="fil20" d="M11056.95 22246.14c-465.84,2546.54 2791.93,9124.81 2791.93,9124.81l1206.25 8696.17c1531.26,1203.75 2892.56,0 2892.56,0 282.43,-2611.83 -297.26,-5914.03 -799.8,-8515.02 -524.23,-2713.13 -1396.1,-6700.02 -2526.67,-9246.95l-3564.29 -59z"/>
       </g>
       <g>
        <polygon class="fil7" points="15886.2,40499.21 15941.1,40518.1 14907.62,31229.96 14906.43,31226.82 11511.36,22403.75 11462.35,22422.6 14856.22,31242.52 "/>
       </g>
      </g>
      <path class="fil7" d="M11130.75 22331.82c0,0 3378.04,1027.29 6276.4,513.88l-122.53 -820.91 -6153.87 307.03z"/>
     </g>
     <g>
      <path class="fil7" d="M19994.02 15943.69c0,0 -275.77,2237.58 -1509.04,2433.29l-444.15 -2600.8 1624.77 -81.98 328.42 249.49z"/>
      <g>
       <g>
        <path class="fil12" d="M17796.63 14867.28c0,0 471.64,473.94 2501.89,1594.66 0,0 1221.78,-32.21 2711.88,-677.9 926.35,166.63 1010.78,259.15 919.36,883.27 -1340.28,714.69 -3121.19,2067.07 -4129.74,2046.11 0,0 -1336.03,-240.35 -3041.86,-2666.8l1038.47 -1179.34z"/>
       </g>
       <g>
        <path class="fil13" d="M19894.71 16236.03c0,0 -839.58,1816.47 -1264.07,1848.25l-441.46 -326.01 1409.98 -1715.09 295.55 192.84z"/>
       </g>
       <g>
        <path class="fil13" d="M20201.87 16629.42c0,0 1.41,15.34 2.93,42.11 0.58,13.32 1.34,29.52 2.2,48.1 0.7,18.52 0.95,39.42 1.28,62.15 0.12,22.68 -0.37,47.22 -1.13,73.07 -0.83,25.85 -2.93,52.98 -5.17,80.91 -1.1,13.96 -3.06,28.08 -4.68,42.38 -2.32,14.18 -3.94,28.63 -6.54,43 -4.58,28.91 -10.85,57.81 -18.79,86.23 -3.46,14.33 -8.29,28.23 -12.29,42.35 -5.13,13.62 -9.56,27.59 -15.22,40.82 -11.52,26.34 -22.51,52.65 -36.94,75.96 -3.45,5.9 -6.6,11.97 -10.3,17.6 -3.85,5.47 -7.61,11.03 -11.16,16.62 -6.84,11.34 -15.1,21.33 -22.76,31.35 -7.3,10.3 -16.07,18.94 -23.89,27.96 -7.61,9.26 -15.92,17.23 -24.05,24.87 -15.58,15.95 -32.08,28.08 -46.02,40.27 -15.04,10.27 -27.78,20.26 -38.96,27.56 -22.59,13.84 -35.69,22.4 -35.69,22.4 0,0 14.64,-4.34 40.46,-13.08 12.68,-4.89 27.69,-11.86 44.95,-19.99 16.29,-9.69 35.97,-19.34 54.58,-34.04 9.69,-6.84 19.71,-14.12 29.18,-22.76 9.59,-8.53 19.8,-17.18 28.91,-27.35 9.32,-9.93 19.34,-19.95 27.99,-31.41 9.32,-11.06 18.07,-22.92 26.01,-35.57 4.1,-6.26 8.37,-12.5 12.4,-18.95 3.76,-6.63 7.52,-13.26 11.21,-19.95 8.13,-13.23 14.21,-27.53 20.72,-41.8 6.44,-14.27 11.58,-29.18 17.38,-43.91 4.61,-15.1 10.17,-30.01 14.05,-45.29 7.95,-30.71 14.05,-61.67 18.3,-92.31 4.62,-30.61 6.11,-61.02 7.12,-90.29 1.07,-29.28 -0.12,-57.57 -1.84,-84.21 -1.49,-26.74 -4.55,-51.83 -7.97,-74.77 -6.67,-46.05 -15.74,-83.7 -23.13,-109.7 -7.46,-25.97 -13.17,-40.34 -13.17,-40.34z"/>
       </g>
      </g>
      <path class="fil6" d="M17253.42 12455c671.54,239.6 869.34,947.07 1266.27,1548.64 491.78,745.25 1043.39,1150.74 1474.33,1940.04 -4.64,2.66 -9.32,5.69 -13.47,10.52 -646.76,773.02 -1631.49,1767.3 -1495.57,2422.78 -431.99,-369.31 -1376.46,-771.07 -1726.82,-1219.06l-407.69 -4964.58c227.1,111.69 665.83,176.9 902.95,261.66z"/>
     </g>
     <g>
      <g>
       <g>
        <g>
         <path class="fil12" d="M2948.61 25976.53c-183.86,189.85 -194.16,-73.55 31.41,-355.65 137.66,-172.16 314.12,-360.26 490.49,-488.6 802.64,-584.06 1391.1,-977.02 1858.34,-1967.95l1018.18 877.47c-143.28,231.92 -273.79,326.96 -445.61,544.98 -111.29,141.23 -231.77,282.99 -323.63,437.27 -90.69,152.82 -116.23,337.68 -214.75,485.12 -120.37,179.77 -339.55,334.84 -504,473.63 -72.54,61.3 -327.17,293.8 -418.07,208.83 -110.44,-103.11 219.4,-502.84 249.52,-621.19 -253.23,-55.52 -411.81,123.67 -608.78,267.98 -131.46,96.53 -665.5,564.38 -857.67,357.66 -72.97,60.11 -174.18,83.45 -179.21,-28.08 -62.73,51.43 -228.47,-8.71 -96.22,-191.47z"/>
        </g>
       </g>
      </g>
      <g>
       <g>
        <path class="fil13" d="M2984.91 25931.4c-3.95,-0.33 -7.64,-2.65 -9.63,-6.72 -2.84,-6.11 -0.58,-13.5 5.29,-16.56 261.35,-141.17 432.41,-294.02 613.39,-455.97 78.96,-70.49 160.57,-143.4 253.35,-218.78 5.13,-4.37 12.43,-3.34 16.31,2.07 3.95,5.5 2.91,13.14 -2.14,17.39 -92.34,75.1 -173.72,147.83 -252.43,218.23 -182.12,162.71 -354.19,316.57 -618.04,459.08 -1.98,1.07 -4.06,1.41 -6.11,1.25z"/>
       </g>
      </g>
      <g>
       <g>
        <path class="fil13" d="M3101.76 26051.43c-3.97,-0.34 -7.85,-2.72 -9.81,-6.54 -3.03,-5.93 -0.7,-13.08 5.19,-16.16 405.79,-207.52 640.99,-427.65 953.43,-739.81 4.74,-4.83 12.25,-4.77 16.96,0 4.64,4.67 4.64,12.31 0,16.99 -314.07,313.81 -550.48,535.08 -959.36,744.14 -2.05,1.04 -4.28,1.44 -6.42,1.38z"/>
       </g>
      </g>
      <g>
       <g>
        <path class="fil13" d="M3252.77 26161.43c-4.46,-0.34 -8.55,-3.09 -10.3,-7.43 -2.48,-6.18 0.52,-13.24 6.72,-15.65 531.75,-214.32 957.77,-698.1 1004.76,-752.61 4.22,-4.99 12.4,-6.45 17.51,-2.11 4.76,4.06 4.89,11.92 1.25,17.14 -0.12,0 -0.12,0.03 -0.12,0.19 -0.12,0.03 -0.3,0.21 -0.39,0.37 -1.96,2.44 -8.22,9.81 -18.7,22.85 -1.28,1.77 -2.9,2.93 -4.74,3.73 -106.86,118.96 -504.79,536.91 -990.62,732.72 -1.8,0.7 -3.64,0.98 -5.38,0.8z"/>
       </g>
      </g>
     </g>
     <path class="fil6" d="M13489.76 11646.94c-272.3,961.8 -1792.58,953.15 -2446.16,1408.66 -547.82,381.78 -252.25,927.09 -303.19,1619.05 -73.76,1001.52 38.51,2010.51 96.78,3011.42 62.91,1079.47 21.63,1961.95 53.59,3042.44 6.36,216.03 -8.83,1357.94 0,1574.67 0,0 6517.32,807.83 6643.37,101.18 0.12,-0.27 0,0.24 0,0 -5.99,-1424.68 -155.08,-4044.21 6.97,-6567.95 0,-0.31 -0.09,-0.46 -0.09,-0.73 -140.32,-783.78 -89.62,-1591.12 -266.79,-2377.96 -83.51,-370.65 -219.18,-700.82 -483.16,-990.95 -451.54,-496.24 -1275.98,-266.02 -1586.41,-667.32 -448.85,714.38 -1256.03,388.56 -1714.9,-152.51z"/>
     <g>
      <g>
       <g>
        <path class="fil6" d="M7909.76 17006c413.8,-1148.9 1456.09,-2094.26 1994.07,-2954.92 895.83,-1433.51 2433.85,-1154.76 3369.12,-1962.62l-1448.48 3403.16 -24.26 -7.03c-378.41,982.22 -802.48,2621.89 -1292.36,3567.07 -600.44,-713.19 -1767.49,-1681.54 -2598.08,-2045.65z"/>
       </g>
      </g>
     </g>
     <g>
      <path class="fil7" d="M17475.02 17492.67c1.86,0 3.63,-0.34 5.5,-0.91 9.17,-3.03 14.15,-12.9 11.12,-22.07l-1069.82 -3258.35c-3,-9.23 -12.84,-14.21 -22.03,-11.21 -9.2,3.03 -14.18,12.89 -11.21,22.06l1069.85 3258.41c2.45,7.36 9.26,12.07 16.59,12.07z"/>
     </g>
     <g>
      <path class="fil7" d="M10950.53 18015.04c7.15,0 13.84,-4.41 16.41,-11.43l1265.66 -3426.14c3.33,-9.05 -1.31,-19.1 -10.36,-22.49 -9.08,-3.33 -19.16,1.32 -22.49,10.39l-1265.57 3426.11c-3.39,9.08 1.28,19.1 10.36,22.46 1.99,0.74 4.03,1.1 5.99,1.1z"/>
     </g>
    </g>
    <g>
     <g>
      <polygon class="fil5" points="21770.96,13800.09 24642.15,18832.74 28967.12,16365.29 26779.08,12530.06 24898.53,12015.79 "/>
      <polygon class="fil11" points="21847.04,13521.92 24718.21,18554.55 29043.21,16087.13 26855.17,12251.89 24974.59,11737.59 "/>
      <polygon class="fil5" points="25657.74,12935.05 26855.17,12251.89 24974.59,11737.59 "/>
      <g>
       <polygon class="fil5" points="23421.78,14764.11 26439.99,13042.18 26304.99,12805.58 23286.78,14527.51 "/>
       <polygon class="fil5" points="23759.28,15355.7 26777.49,13633.76 26642.49,13397.13 23624.28,15119.06 "/>
       <polygon class="fil5" points="24096.75,15947.27 27114.99,14225.34 26979.99,13988.71 23961.78,15710.64 "/>
       <polygon class="fil5" points="24434.25,16538.82 27452.49,14816.89 27317.49,14580.26 24299.25,16302.19 "/>
       <polygon class="fil5" points="25428.2,16755.86 27133.54,15782.97 26998.54,15546.34 25293.2,16519.26 "/>
      </g>
     </g>
    </g>
   </g>
   <path class="fil7" d="M56330.82 43459.3l-55840.48 0c-270.81,0 -490.34,117.27 -490.34,261.96l0 125.43c0,144.69 219.53,262 490.34,262l55840.48 0c270.83,0 490.34,-117.31 490.34,-262l0 -125.43c0,-144.69 -219.51,-261.96 -490.34,-261.96z"/>
   <g>
    <g>
     <path class="fil20" d="M50417.04 12198.15c-325.06,-2088.16 -2010.81,-3754.29 -4149.48,-4014.29 -200.33,-24.36 -376.52,133.5 -376.52,335.29l0 0.37c0,169.28 125.22,314.07 293.29,334.45 1837.95,222.85 3286.98,1654.43 3566.09,3448.84 25.33,162.87 167.91,281.7 332.73,281.7 205.83,0 365.55,-183 333.89,-386.36z"/>
     <path class="fil20" d="M49218.15 12175.48c-307.95,-1428.59 -1466.6,-2557.81 -2935.98,-2802.42 -204.94,-34.13 -391.13,125.5 -391.13,333.26l0 0.18c0,165.71 120.61,305.51 284.03,332.98 1192.57,200.3 2132.59,1117.4 2382.99,2277.3 33.65,155.87 170.45,267.74 329.89,267.74l0.22 0c215.18,0 375.33,-198.71 329.99,-409.03z"/>
     <path class="fil20" d="M47935.87 12137.12c-258.88,-725.96 -860.66,-1295.26 -1616.54,-1503.02 -215.37,-59.19 -428.28,101.79 -428.28,325.13l0 0.52c0,150.43 99.01,284.76 244.18,324.15 542.26,147.25 974.73,553.54 1162.32,1072.6 49.02,135.61 174.97,228.01 319.14,228.01l0.15 0c231.74,0 396.87,-229.11 319.04,-447.38z"/>
    </g>
    <g>
     <path class="fil20" d="M41651.36 18894.8c337.2,-125.07 715.24,-128.43 1066.01,19.53 125.55,52.98 239.62,122.1 341.11,203.96 6.32,-17.23 13.04,-34.41 20.25,-51.49 242.99,-575.9 888.01,-853.76 1440.66,-620.58 194.92,82.23 352.1,217.2 463.58,382.54 485.85,-357.82 1127.82,-461.83 1706.93,-217.5 104.17,43.94 201.4,97.54 291.75,158.81l0 -4020.16 1388.07 0 -4053.2 -3958.13 -4053.2 3958.13 1388.04 0 0 4144.89z"/>
     <path class="fil19" d="M46981.64 15372.47l0 3397.6c-90.36,-61.27 -187.59,-114.86 -291.75,-158.81 -579.11,-244.33 -1221.08,-140.31 -1706.93,217.5 -111.47,-165.34 -268.66,-300.31 -463.58,-382.54 -552.65,-233.18 -1197.67,44.68 -1440.66,620.58 -7.21,17.08 -13.93,34.26 -20.25,51.49 -101.48,-81.86 -215.55,-150.98 -341.11,-203.96 -350.76,-147.96 -728.81,-144.62 -1066.01,-19.53l0 -4144.89 -1388.04 0 3248.21 -3172.03c-386.48,-125.16 -799.14,-193.09 -1227.91,-193.09 -1416.92,0 -2659.14,739.32 -3354.7,1849.2 -376.36,-233.36 -821.09,-368.73 -1298.02,-368.73 -1352.23,0 -2448.42,1084.65 -2448.42,2422.6 0,39.7 1.1,79.14 3.03,118.35 -282.5,-77 -579.94,-118.35 -887.18,-118.35 -1840.55,0 -3332.61,1476.32 -3332.61,3297.44 0,1821.12 1492.05,3297.44 3332.61,3297.44l11930.01 0c1840.55,0 3332.61,-1476.32 3332.61,-3297.44 0,-1564.78 -1101.61,-2874.99 -2579.29,-3212.82z"/>
    </g>
   </g>
   <g>
    <polygon class="fil21" points="4472.19,7424.03 4886.88,6411.47 887.04,4892.83 "/>
    <polygon class="fil22" points="4270.83,6799.97 887.04,4892.83 3242.44,7285.11 "/>
    <polygon class="fil22" points="5802.3,5999.14 887.04,4892.83 4886.88,6411.47 "/>
    <polygon class="fil23" points="4270.83,6799.97 4472.19,7424.03 3861.71,6992.97 "/>
    <g>
     <path class="fil3" d="M9139.12 10418.46c-2.63,-22.21 13.2,-42.32 35.38,-44.95 127.7,-15.15 256.86,-63.47 383.79,-143.58 18.98,-11.86 43.91,-6.21 55.8,12.62 11.92,18.91 6.23,43.84 -12.62,55.8 -137.26,86.53 -277.7,138.85 -417.41,155.5 -1.61,0.15 -3.26,0.24 -4.83,0.24 -20.23,0 -37.64,-15.1 -40.12,-35.63zm-395.62 -57.11l0 0c-131.42,-87.12 -206.78,-222.76 -206.78,-372.06 0,-9.81 0.37,-19.65 0.98,-29.55 1.43,-22.31 20.66,-38.84 42.9,-37.74 22.28,1.43 39.21,20.63 37.74,42.9 -0.52,8.22 -0.8,16.26 -0.8,24.39 0,121.74 62.19,232.78 170.6,304.68 18.64,12.31 23.68,37.43 11.36,56.01 -7.79,11.73 -20.63,18.12 -33.73,18.12 -7.64,0 -15.43,-2.17 -22.28,-6.75zm4179.15 -241.65l0 0c-74.62,-121.79 -159.02,-236.75 -250.69,-341.74 -14.7,-16.8 -13.02,-42.32 3.85,-57.02 16.72,-14.79 42.27,-13.05 56.99,3.85 94.76,108.36 181.82,227.01 258.82,352.72 11.64,18.97 5.68,43.88 -13.39,55.58 -6.57,4.03 -13.84,5.93 -21.05,5.93 -13.63,0 -26.89,-6.84 -34.53,-19.31zm-3045.83 -107.74l0 0c-17.17,-14.33 -19.44,-39.78 -5.17,-56.96 90.79,-108.78 160.37,-229.76 206.81,-359.5 7.51,-20.99 30.61,-31.99 51.67,-24.41 21.02,7.52 31.96,30.68 24.44,51.67 -49.65,138.7 -123.97,267.93 -220.83,384.04 -7.98,9.59 -19.46,14.54 -31.04,14.54 -9.17,0 -18.31,-3.05 -25.89,-9.38zm-1135.61 -396.72l0 0c-15.95,-15.62 -16.16,-41.22 -0.55,-57.17 91.86,-93.53 212.77,-180.04 359.35,-257.11 19.86,-10.39 44.12,-2.75 54.61,16.99 10.35,19.74 2.78,44.16 -17.03,54.58 -139.15,73.18 -253.28,154.65 -339.24,242.19 -7.88,8.04 -18.36,12.1 -28.84,12.1 -10.21,0 -20.48,-3.85 -28.3,-11.58zm3624.94 -129.9l0 0c-110.49,-88 -229.6,-165.86 -353.97,-231.49 -19.74,-10.42 -27.31,-34.83 -16.9,-54.58 10.3,-19.74 34.77,-27.53 54.58,-16.9 128.85,67.96 252.21,148.6 366.62,239.69 17.45,13.9 20.35,39.39 6.44,56.81 -7.97,10.05 -19.77,15.27 -31.68,15.27 -8.77,0 -17.66,-2.91 -25.09,-8.8zm-2176.5 -258.51l0 0c-22.31,-0.24 -40.21,-18.52 -39.93,-40.89l0.06 -13.84c0,-129.65 -18.18,-264.75 -54.05,-401.54 -5.65,-21.64 7.24,-43.7 28.85,-49.38 21.44,-5.38 43.63,7.27 49.35,28.85 37.64,143.52 56.71,285.49 56.71,422.08l-0.06 14.79c-0.27,22.15 -18.33,39.94 -40.43,39.94 -0.15,0 -0.3,0 -0.49,0zm-711.6 -42.47l0 0c-7.12,-21.14 4.25,-44.09 25.36,-51.25 141.02,-47.6 281.33,-88.55 417.13,-121.77 21.05,-4.98 43.54,8.01 48.86,29.7 5.32,21.7 -8.01,43.51 -29.7,48.83 -133.47,32.63 -271.58,72.97 -410.4,119.87 -4.31,1.41 -8.68,2.11 -12.93,2.11 -16.9,0 -32.63,-10.63 -38.31,-27.5zm2143.4 -92.47l0 0c-132,-41.1 -271.28,-71.69 -413.92,-90.84 -22.15,-2.96 -37.68,-23.32 -34.68,-45.44 2.99,-22.1 24.04,-37.98 45.41,-34.68 147.19,19.74 290.93,51.33 427.21,93.81 21.3,6.63 33.22,29.24 26.59,50.57 -5.38,17.32 -21.33,28.41 -38.6,28.41 -3.94,0 -8,-0.57 -12,-1.83zm-1308.2 -117.27l0 0c-3.06,-22.15 12.44,-42.54 34.53,-45.59 148.08,-20.35 294.29,-31.63 434.6,-33.52 0.16,0 0.37,0 0.52,0 22.12,0 40.12,17.75 40.43,39.9 0.33,22.31 -17.57,40.64 -39.88,40.95 -136.98,1.84 -279.86,12.84 -424.61,32.79 -1.89,0.28 -3.76,0.37 -5.6,0.37 -19.89,0 -37.21,-14.69 -40,-34.89zm-367.38 -598.73l0 0c-60.96,-122.68 -135.18,-244.61 -220.5,-362.25 -13.11,-18.09 -9.04,-43.36 8.98,-56.47 17.97,-13.05 43.33,-8.98 56.5,9.01 87.89,121.25 164.43,247.03 227.44,373.71 9.93,19.98 1.77,44.25 -18.22,54.2 -5.8,2.84 -11.95,4.22 -17.97,4.22 -14.88,0 -29.21,-8.22 -36.24,-22.43zm-494.63 -687.26l0 0c-97.81,-100.59 -204.33,-196.3 -316.6,-284.39 -17.6,-13.78 -20.66,-39.2 -6.84,-56.74 13.72,-17.57 39.21,-20.81 56.74,-6.84 115.11,90.33 224.32,188.45 324.7,291.67 15.53,15.98 15.22,41.55 -0.83,57.14 -7.86,7.64 -18.03,11.43 -28.17,11.43 -10.54,0 -21.05,-4.09 -29,-12.25zm-3999.57 -366.98l0 0c-13.04,-18.06 -8.95,-43.33 9.17,-56.41 22.15,-16.01 44.43,-31.69 66.64,-47.03 18.37,-12.68 43.64,-8 56.19,10.33 12.71,18.42 8.07,43.57 -10.3,56.23 -21.79,15 -43.54,30.37 -65.27,46.05 -7.12,5.17 -15.43,7.64 -23.59,7.64 -12.59,0 -24.94,-5.87 -32.85,-16.81zm3331.63 -157.64l0 0c-122.29,-72.36 -250.08,-136.95 -379.82,-191.9 -20.53,-8.71 -30.16,-32.42 -21.42,-53.01 8.74,-20.48 32.49,-30.26 52.98,-21.42 133.02,56.38 264.04,122.53 389.42,196.75 19.18,11.36 25.58,36.15 14.21,55.37 -7.55,12.74 -20.99,19.84 -34.86,19.84 -7,0 -14.03,-1.78 -20.5,-5.62zm-2899.65 -116.12l0 0c-10.27,-19.83 -2.5,-44.21 17.33,-54.48 130.63,-67.63 265.39,-126.05 400.39,-173.54 20.9,-7.63 44.18,3.58 51.55,24.69 7.43,21.05 -3.64,44.15 -24.69,51.51 -131.48,46.27 -262.75,103.19 -390.09,169.13 -5.95,3.06 -12.25,4.53 -18.52,4.53 -14.64,0 -28.75,-7.95 -35.97,-21.85zm2117.86 -214.17l0 0c-137.6,-36.79 -277.98,-63.62 -417.25,-79.75 -22.22,-2.57 -38.1,-22.61 -35.54,-44.77 2.6,-22.21 23.07,-37.28 44.8,-35.54 143.22,16.56 287.51,44.15 428.84,81.95 21.57,5.78 34.4,27.96 28.63,49.47 -4.86,18.12 -21.17,30 -39.05,30 -3.42,0 -6.97,-0.42 -10.42,-1.37zm-1310.64 -80.79l0 0c-4.22,-21.94 10.17,-43.12 32.06,-47.33 143,-27.41 289.09,-44 434.15,-49.26 20.75,-1.19 41.01,16.68 41.83,38.9 0.85,22.31 -16.57,41.07 -38.9,41.86 -140.96,5.13 -282.86,21.24 -421.81,47.88 -2.6,0.52 -5.17,0.73 -7.7,0.73 -19.01,0 -35.94,-13.47 -39.63,-32.79z"/>
    </g>
   </g>
  </g>
 </g>
</svg>
