<?xml version="1.0" encoding="UTF-8"?>
<!DOCTYPE svg PUBLIC "-//W3C//DTD SVG 1.1//EN" "http://www.w3.org/Graphics/SVG/1.1/DTD/svg11.dtd">
<!-- Creator: CorelDRAW 2018 (64-Bit) -->
<svg xmlns="http://www.w3.org/2000/svg" xml:space="preserve" width="10.9413in" height="10.3265in" version="1.1" style="shape-rendering:geometricPrecision; text-rendering:geometricPrecision; image-rendering:optimizeQuality; fill-rule:evenodd; clip-rule:evenodd"
viewBox="0 0 16124.22 15218.31"
 xmlns:xlink="http://www.w3.org/1999/xlink">
 <defs>
  <style type="text/css">
   <![CDATA[
    .str1 {stroke:white;stroke-width:24.27;stroke-linecap:round;stroke-linejoin:round;stroke-miterlimit:10}
    .str9 {stroke:white;stroke-width:245.62;stroke-linecap:round;stroke-linejoin:round;stroke-miterlimit:10}
    .str0 {stroke:#BA85AF;stroke-width:10.98;stroke-linecap:round;stroke-linejoin:round;stroke-miterlimit:10}
    .str8 {stroke:#1C212A;stroke-width:16.94;stroke-linecap:round;stroke-linejoin:round;stroke-miterlimit:10}
    .str7 {stroke:#3D231F;stroke-width:6.77;stroke-linecap:round;stroke-linejoin:round;stroke-miterlimit:10}
    .str6 {stroke:#1C212A;stroke-width:8.29;stroke-linecap:round;stroke-linejoin:round;stroke-miterlimit:10}
    .str10 {stroke:#364D90;stroke-width:30.7;stroke-linecap:round;stroke-linejoin:round;stroke-miterlimit:4}
    .str4 {stroke:#131A24;stroke-width:6.94;stroke-linecap:round;stroke-linejoin:round;stroke-miterlimit:10}
    .str2 {stroke:#131A24;stroke-width:7.03;stroke-linecap:round;stroke-linejoin:round;stroke-miterlimit:10}
    .str3 {stroke:#131A24;stroke-width:7.03;stroke-linecap:round;stroke-linejoin:round;stroke-miterlimit:10}
    .str5 {stroke:#131A24;stroke-width:5.71;stroke-linecap:round;stroke-linejoin:round;stroke-miterlimit:10}
    .str11 {stroke:#364D90;stroke-width:30.7;stroke-linecap:round;stroke-linejoin:round;stroke-miterlimit:4;stroke-dasharray:93.621064 93.621064}
    .str13 {stroke:#364D90;stroke-width:30.7;stroke-linecap:round;stroke-linejoin:round;stroke-miterlimit:4;stroke-dasharray:89.890379 89.890379}
    .str12 {stroke:#364D90;stroke-width:30.7;stroke-linecap:round;stroke-linejoin:round;stroke-miterlimit:4;stroke-dasharray:108.172479 108.172479}
    .str14 {stroke:#364D90;stroke-width:30.7;stroke-linecap:round;stroke-linejoin:round;stroke-miterlimit:4;stroke-dasharray:103.913811 103.913811}
    .fil9 {fill:none;fill-rule:nonzero}
    .fil26 {fill:#FEFEFE}
    .fil25 {fill:#080401}
    .fil23 {fill:#00A859;fill-rule:nonzero}
    .fil16 {fill:#008F4F;fill-rule:nonzero}
    .fil24 {fill:#080401;fill-rule:nonzero}
    .fil3 {fill:#131A24;fill-rule:nonzero}
    .fil17 {fill:#1C212A;fill-rule:nonzero}
    .fil10 {fill:#2A4479;fill-rule:nonzero}
    .fil22 {fill:#364D90;fill-rule:nonzero}
    .fil15 {fill:#3B5089;fill-rule:nonzero}
    .fil18 {fill:#3D211F;fill-rule:nonzero}
    .fil5 {fill:#3D6EAF;fill-rule:nonzero}
    .fil20 {fill:#509074;fill-rule:nonzero}
    .fil6 {fill:#568ECC;fill-rule:nonzero}
    .fil14 {fill:#5B72BC;fill-rule:nonzero}
    .fil19 {fill:#6B2D28;fill-rule:nonzero}
    .fil1 {fill:#B66421;fill-rule:nonzero}
    .fil8 {fill:#C6EFFF;fill-rule:nonzero}
    .fil4 {fill:#CA7C2D;fill-rule:nonzero}
    .fil21 {fill:#CF4B95;fill-rule:nonzero}
    .fil13 {fill:#E29991;fill-rule:nonzero}
    .fil2 {fill:#EBAC3F;fill-rule:nonzero}
    .fil11 {fill:#EFC42F;fill-rule:nonzero}
    .fil7 {fill:white;fill-rule:nonzero}
    .fil0 {fill:#4485E8;fill-rule:nonzero;fill-opacity:0.301961}
    .fil12 {fill:#3D6EAF;fill-rule:nonzero;fill-opacity:0.400000}
   ]]>
  </style>
 </defs>
 <g id="Layer_x0020_1">
  <metadata id="CorelCorpID_0Corel-Layer"/>
  <g id="_1222838766624">
   <path class="fil0" d="M4759.85 14876.99c0,188.5 -1065.53,341.32 -2379.93,341.32 -1314.4,0 -2379.92,-152.82 -2379.92,-341.32 0,-188.51 1065.53,-341.31 2379.92,-341.31 1314.4,0 2379.93,152.81 2379.93,341.31z"/>
   <path class="fil0" d="M15542.52 14876.99c0,188.5 -2609.21,341.32 -5827.82,341.32 -3218.61,0 -5827.82,-152.82 -5827.82,-341.32 0,-188.51 2609.21,-341.31 5827.82,-341.31 3218.62,0 5827.82,152.81 5827.82,341.31z"/>
   <g>
    <g>
     <path class="fil1" d="M10262.09 8276.83l523.68 6226.61c0,0 54.87,452.67 -225.89,453.33 -461.61,1.1 -2297.63,0 -2297.63,0 0,0 347.44,-153.79 343.22,-330.57 -4.97,-208.38 -612.06,-6408.31 -612.06,-6408.31l2268.69 58.93z"/>
     <path class="fil2" d="M8113.28 14768.6c90.78,0.26 1844.4,5.77 2293.94,0 195.92,-2.45 230.27,-174.21 231.9,-285.36 0.81,-53.3 -538.3,-6378.32 -538.3,-6378.32l-2260.02 0c0,0 611.83,6377.41 612.01,6408.34 0.09,18.03 -1.44,34.8 -4.42,50.4 -37.24,198.44 -301.05,204.94 -335.12,204.94z"/>
     <polygon class="fil2" points="10110.25,14959.17 7735.18,14959.17 7735.18,14771.08 10110.25,14771.08 "/>
     <polygon class="fil3" points="8338.95,13278.69 8351.21,13364.98 10584.85,13816.22 10554.19,13451.8 10539.59,13278.69 "/>
     <path class="fil4" d="M8113.28 14768.6c90.78,0.26 1844.4,5.77 2293.94,0 195.92,-2.45 230.27,-174.21 231.9,-285.36l-2223.09 -418.26c23.09,254.7 36.61,417.35 36.79,448.28 0.09,18.03 -1.44,34.8 -4.42,50.4 -37.24,198.44 -301.05,204.94 -335.12,204.94z"/>
    </g>
    <g>
     <path class="fil1" d="M14437.32 13278.73l-10409.19 0c-66.81,0 -132.58,-16.65 -191.34,-48.44 -144.86,-78.36 -227.29,-237.13 -208.07,-400.7l16.59 -141.01 11272.3 0 -17.61 172.34c-24.25,237.31 -224.13,417.8 -462.67,417.8z"/>
     <path class="fil4" d="M15679.68 5231.67l-776.74 7600.43 -289.5 -30.59 469.35 -7912.98 191.48 0c200.81,0 372.23,145.08 405.41,343.13z"/>
     <path class="fil2" d="M15449.37 5297.41l-817.69 7474.4c-20.46,187.02 -178.43,328.67 -366.58,328.67l-10253.55 0c-220.75,0 -392.05,-192.64 -366.24,-411.89l879.83 -7474.39c21.86,-185.7 179.25,-325.66 366.24,-325.66l10191.41 0c219.54,0 390.46,190.63 366.58,408.87z"/>
     <path class="fil4" d="M3640.54 12723.87l133.52 -1151.23 10987.19 0 -129.48 1195c-20.52,189.37 -180.4,332.87 -370.88,332.87l-10284.87 0c-201.95,0 -358.76,-176.05 -335.49,-376.64z"/>
    </g>
    <g>
     <g>
      <path class="fil5" d="M6441.84 5265.02l8337.78 0c112.13,0 191.15,90.91 176.5,203.05l-30.65 234.45 -8540.81 0 57.18 -437.5z"/>
      <path class="fil6" d="M14925.46 5702.52l-37.52 287.06 -9927.1 0 52.77 -463.85c18.82,-143.98 150.79,-260.71 294.78,-260.71l1230.33 0c143.98,0 245.44,116.72 226.63,260.71l-6.89 52.72c-18.82,143.99 108.37,124.07 252.35,124.07l7914.65 0z"/>
     </g>
     <path class="fil7" d="M14112.08 11148.91l-9645.35 0c-99.53,0 -169.67,-80.68 -156.65,-180.19l650.76 -4979.14 9927.1 0 -572.11 4979.14c-13,99.52 -104.23,180.19 -203.75,180.19z"/>
     <g>
      <path class="fil8" d="M14552.48 5594.68l-7386.73 0c-61.04,0 -104.06,-49.49 -96.08,-110.53 7.98,-61.04 63.93,-110.52 124.98,-110.52l7386.72 0c61.05,0 104.06,49.48 96.09,110.52 -7.99,61.05 -63.94,110.53 -124.98,110.53z"/>
      <g>
       <g>
        <g>
         <path class="fil9 str0" d="M14458.72 5477.42c-4.27,32.65 18.73,59.12 51.38,59.12 32.64,0 62.56,-26.47 66.83,-59.12 4.26,-32.63 -18.73,-59.1 -51.38,-59.1 -32.65,0 -62.56,26.47 -66.83,59.1z"/>
        </g>
        <line class="fil9 str0" x1="14470.13" y1="5518.65" x2="14435.57" y2= "5549.22" />
       </g>
      </g>
     </g>
     <g>
      <path class="fil10" d="M6068.35 5496.25c-7.11,54.36 31.2,98.43 85.57,98.43 54.36,0 104.19,-44.07 111.3,-98.43 7.1,-54.36 -31.21,-98.44 -85.57,-98.44 -54.37,0 -104.2,44.08 -111.3,98.44z"/>
      <path class="fil11" d="M5718.71 5496.25c-7.11,54.36 31.2,98.43 85.57,98.43 54.36,0 104.19,-44.07 111.3,-98.43 7.1,-54.36 -31.21,-98.44 -85.58,-98.44 -54.35,0 -104.19,44.08 -111.29,98.44z"/>
      <path class="fil7" d="M5369.06 5496.25c-7.1,54.36 31.21,98.43 85.57,98.43 54.37,0 104.19,-44.07 111.3,-98.43 7.1,-54.36 -31.21,-98.44 -85.57,-98.44 -54.36,0 -104.19,44.08 -111.3,98.44z"/>
     </g>
     <path class="fil6" d="M11416.5 8497.18c-156.01,963.37 -1081.62,1744.35 -2067.41,1744.35 -985.79,0 -1658.45,-780.98 -1502.44,-1744.35 156,-963.38 1081.6,-1744.34 2067.39,-1744.34 985.8,0 1658.46,780.95 1502.46,1744.34z"/>
     <g>
      <path class="fil9 str1" d="M10140.94 8497.18c-145.06,895.75 -459.13,1634.87 -727.85,1743.12m-127.58 0c-233.68,-108.25 -308.35,-847.38 -163.29,-1743.12 145.05,-895.71 459.09,-1634.81 727.81,-1743.11m127.64 0c233.65,108.3 308.31,847.41 163.26,1743.11"/>
      <path class="fil9 str1" d="M10976.69 8497.18c-139.6,862.06 -731.12,1579.04 -1382.34,1728.25m-485.27 0c-602.9,-149.2 -962.21,-866.18 -822.61,-1728.25 139.6,-862.02 731.08,-1578.97 1382.26,-1728.22m485.44 0.01c602.85,149.26 962.13,866.2 822.52,1728.21"/>
      <line class="fil9 str1" x1="8982.89" y1="6986.73" x2="10769.45" y2= "6986.73" />
      <line class="fil9 str1" x1="8237.53" y1="7610.94" x2="11312.65" y2= "7610.94" />
      <line class="fil9 str1" x1="7846.65" y1="8497.18" x2="11416.5" y2= "8497.18" />
      <line class="fil9 str1" x1="7950.5" y1="9383.42" x2="11025.62" y2= "9383.42" />
      <line class="fil9 str1" x1="8493.7" y1="10007.64" x2="10280.24" y2= "10007.64" />
     </g>
     <path class="fil12" d="M11416.46 8497.45c-2.42,14.96 -5.04,29.89 -7.83,44.76l-0.04 0.26c-2.79,14.87 -5.78,29.69 -8.94,44.48 -149.36,698.6 -701.75,1288.77 -1376.23,1533.51l-0.23 0.08c-14.28,5.18 -28.61,10.21 -42.99,15.07l-0.23 0.08c-14.38,4.86 -28.8,9.57 -43.29,14.12l-0.26 0.07c-14.48,4.54 -29,8.93 -43.58,13.15 -14.66,4.25 -29.35,8.33 -44.11,12.25l-0.27 0.08c-162.15,43.06 -329.68,66.08 -498.98,66.08 -23.13,0 -46.09,-0.46 -68.88,-1.31l-4.92 -0.18c-11.01,-0.44 -21.97,-0.97 -32.89,-1.61l-1.47 -0.1c-516.52,-30.61 -937.19,-280.02 -1182.53,-655.32l-0.62 -0.93c-4.5,-6.89 -8.9,-13.85 -13.28,-20.83l-5.84 -9.39c-3.79,-6.15 -7.55,-12.32 -11.25,-18.52 -2.48,-4.18 -4.93,-8.4 -7.36,-12.6 -3.3,-5.66 -6.61,-11.31 -9.81,-17.01 -5.29,-9.4 -10.48,-18.86 -15.55,-28.38 -1.94,-3.63 -3.8,-7.31 -5.71,-10.98 -3.87,-7.43 -7.71,-14.86 -11.44,-22.36l-4.8 -9.73c-4.47,-9.15 -8.87,-18.35 -13.15,-27.61l-1.93 -4.14c-43.92,-95.73 -77.68,-197.51 -100.32,-304.15 249.87,448.63 736.45,741.72 1340.61,741.72 985.56,0 1911,-780.83 2066.97,-1743.99 33.95,-209.65 28.85,-411.05 -9.9,-597.22 45.58,81.62 83.24,168.33 112.36,259.36l3.7 11.69c2.2,7.06 4.34,14.15 6.43,21.26 2.16,7.37 4.29,14.76 6.34,22.19l3.45 12.69c2.62,9.82 5.16,19.69 7.58,29.61l2.1 8.74c2.5,10.52 4.91,21.1 7.2,31.72l1.17 5.42c2.54,12 4.93,24.07 7.19,36.19l0.84 4.6c4.71,25.77 8.78,51.82 12.19,78.12l0.32 2.44c1.7,13.33 3.25,26.71 4.61,40.17l0.08 0.68c1.36,13.51 2.55,27.09 3.57,40.72l0.1 1.45c1,13.57 1.83,27.21 2.49,40.9l0.09 2.09c1.29,27.61 1.86,55.43 1.73,83.5l-0.01 2.56c-0.09,13.73 -0.33,27.51 -0.77,41.35l-0.02 0.77 -0.03 0.81c-0.44,13.51 -1.07,27.08 -1.83,40.7l-0.24 4.28c-0.81,13.62 -1.78,27.28 -2.92,40.98l-0.24 2.87c-1.17,13.79 -2.51,27.62 -4.03,41.49l-0.21 2c-1.54,14.01 -3.29,28.06 -5.19,42.16l-0.55 3.99c-1.95,14.23 -4.06,28.49 -6.38,42.8l-0.01 0.09 -0.05 0.27z"/>
    </g>
   </g>
   <g>
    <g>
     <g>
      <g>
       <polygon class="fil13" points="2402.56,14683.52 3034.72,14683.37 2973.95,14012.23 2388.17,14012.37 "/>
       <path class="fil3" d="M2388.24 14012.28l5.24 247.62c0,0 286.14,9.38 600.51,-26.39l-20.02 -221.36 -585.73 0.14z"/>
      </g>
      <g>
       <path class="fil10" d="M3576.31 14957.08c0,0 75.85,-32.75 56.33,-125.51 -27.12,-128.87 -363.34,-154.9 -466.5,-240.04 -107.94,-89.1 -213.28,-263.68 -346.76,-241.83 -133.48,21.86 -127.82,161.91 -102.22,223.74 25.6,61.84 18.68,74.57 18.68,74.57 0,0 -317.39,-118.15 -350.84,-143.61 -33.44,-25.45 -75.94,452.95 -75.94,452.95l236.45 -0.05c0,0 -26.57,-116.4 13.65,-118.23 40.23,-1.82 111.86,118.2 111.86,118.2l905.28 -0.2z"/>
       <path class="fil9 str2" d="M3298.42 14657.52c0,0 -102.13,-15.98 -175.79,-15.96"/>
      </g>
     </g>
    </g>
    <g>
     <g>
      <g>
       <polygon class="fil13" points="731.02,14683.61 1363.28,14683.47 1390.37,14012.23 804.5,14012.37 "/>
       <path class="fil3" d="M804.57 14012.28l-27.17 247.65c0,0 284.96,9.38 604.04,-26.39l8.96 -221.39 -585.83 0.14z"/>
      </g>
      <g>
       <path class="fil10" d="M1869.13 14957.22c0,0 80.14,-32.76 72.76,-125.53 -10.26,-128.89 -343.11,-154.92 -435.13,-240.08 -96.28,-89.1 -178.79,-263.71 -315.15,-241.85 -136.37,21.87 -149.04,161.93 -131.53,223.77 17.5,61.84 8.92,74.58 8.92,74.58 0,0 -301.98,-118.17 -332.08,-143.62 -30.11,-25.46 -135.24,453 -135.24,453l236.5 -0.05c0,0 -11.35,-116.41 29.13,-118.24 40.47,-1.82 96.39,118.22 96.39,118.22l905.44 -0.19z"/>
       <path class="fil9 str3" d="M1630.41 14657.61c0,0 -100.06,-15.97 -173.74,-15.96"/>
      </g>
     </g>
    </g>
    <g>
     <path class="fil14" d="M668.83 14137.42c489.2,-4014.17 612.05,-5298.4 612.05,-5298.4l1824.34 14.13 -58.14 5295.73 -783.25 0c-66.93,-1634.67 -78.4,-3129.66 -122.11,-3955.32l-689.62 3943.87 -783.26 0z"/>
     <path class="fil15" d="M2141.74 10193.73c43.73,825.56 55,2320.67 122.18,3955.11l237.16 0 -257.45 -4133.66 -59.97 -36.07c-12.63,72.59 -26.6,144.73 -41.93,214.62z"/>
     <path class="fil9 str4" d="M2290.83 8846.84c0,0 -18.22,754.16 -149.12,1346.71"/>
     <path class="fil9 str4" d="M2445.08 8846.84c0,0 -1.2,462.05 -29.67,659.01 -28.48,196.96 -185.93,153.57 -185.93,153.57"/>
     <line class="fil9 str4" x1="2377.42" y1="10095.55" x2="1978.77" y2= "9857.06" />
    </g>
    <path class="fil3" d="M1254.19 9100.56c232.72,60.49 347.88,-17.64 697.08,-38.9 211.66,-12.88 399.02,51.01 544.81,86.76 315.27,77.31 519.96,20.92 606.04,-20.13l3.15 -275.03 -660.09 -5.41 -154.19 -0.91 -1009.97 -8.12c0,0 -10.14,102.12 -26.82,261.73z"/>
   </g>
   <g>
    <g>
     <path class="fil13" d="M5135.91 6916.38c0,0 15.54,-21.4 -8.51,-55.69 -24.04,-34.28 -49.28,-22.82 -49.28,-22.82 0,0 13.35,-36.93 -24.73,-71.39 -22.69,-20.53 -48.14,-11.44 -56.31,-7.65 38.46,-48.06 91.71,-115.74 124.38,-161.88 55.68,-78.62 71.85,-118.77 49.76,-137.32 -22.1,-18.54 -39.05,-11.02 -87.23,41.93 -48.17,52.94 -235.69,266.59 -235.69,266.59l10.34 4.94c-37.79,75.03 -158.07,207.84 -158.07,207.84l-848.79 720.28 -579.78 -590.6 -328.55 539.3c0,0 641.23,617.06 896.44,681.58 230.08,58.15 960.63,-997.08 1004.82,-1051.35 44.19,-54.25 68.36,-73.44 126.98,-89.01 85.47,-22.7 172.57,-146.68 190.41,-192.96 16.04,-41.67 -26.19,-81.8 -26.19,-81.8z"/>
     <path class="fil13" d="M4862.13 6877.17l-13.89 17.81c0,0 67.95,62.98 75.81,141.73 4.57,45.71 82.53,97.55 151.02,55.38 36.73,-22.62 57.2,-44.66 57.2,-44.66 0,0 -43.99,40.94 -75.38,27.04 -31.39,-13.88 -31.13,-44.4 -19.32,-57.02 0,0 -27.04,6.03 -46.18,-16.62 -19.12,-22.64 -5.61,-52.13 -5.61,-52.13 0,0 -26.81,9.06 -48.71,-13.32 -21.91,-22.37 -11.78,-33.22 -11.78,-33.22 0,0 -34.43,1.48 -63.16,-25z"/>
     <g>
      <path class="fil9 str5" d="M5078.12 6837.87c0,0 -84,120.32 -157.4,164.61"/>
      <path class="fil9 str5" d="M5135.9 6916.4c0,0 -62.28,91.29 -142.27,126.72 0,0 -40.18,16.03 -58.25,-33.83"/>
      <path class="fil9 str5" d="M5135.12 7043.95c0,0 -94.5,109.58 -133.9,22.84"/>
      <path class="fil9 str5" d="M4994.36 6760.19c0,0 -73.37,126.79 -114.35,169.76"/>
     </g>
     <path class="fil13" d="M4726.47 7039.09c0,0 -71.15,-115 -16.75,-195.06 41.22,-60.66 127.21,-102.14 168.54,-70.91 38.15,28.83 101.47,33.19 109.43,78.78 8.98,51.4 -78.88,69.85 -125.56,25.27l-13.89 17.81c0,0 73.8,63.44 76.17,148.52 2.36,85.06 -63.63,112.07 -122.11,77.03 -58.48,-35.03 -75.83,-81.45 -75.83,-81.45z"/>
     <path class="fil9 str5" d="M4852.66 6763.12c38.15,28.83 125.07,43.57 135.02,88.78 10.47,47.5 -78.88,69.85 -125.56,25.27"/>
     <line class="fil9 str5" x1="4862.13" y1="6877.17" x2="4848.24" y2= "6894.99" />
     <path class="fil9 str5" d="M4848.24 6894.99c0,0 73.8,63.44 76.17,148.52"/>
     <g>
      <path class="fil9 str5" d="M4700.57 6980.94c0,0 13.1,71.54 86.81,137.68"/>
     </g>
    </g>
    <path class="fil7" d="M2663.01 6545.9c23.63,0 191.77,75.22 287,175.54 147.33,155.19 352.09,370.43 439.31,459.96 0,0 5.47,100.32 -126.26,312.28 -69.95,112.54 -250.69,298.66 -250.69,298.66l-555.2 -412.52 205.85 -833.92z"/>
   </g>
   <path class="fil16" d="M3129.92 8772.76c0,0 65.37,99.45 58.03,135.48 -7.34,36.38 -140.81,212.68 -895.52,71.61 -415.55,-77.67 -1016.7,87.26 -1021.23,41.27 -4.54,-45.99 -78.09,-202.36 -78.09,-202.36 -27.59,-70.35 91.64,-160.15 91.64,-160.15 2.8,-116.69 27.68,-745.1 27.68,-745.1l10.72 -1239.11c196.69,-84.77 501.13,-186.91 501.13,-186.91l656.13 6.17c261.69,32.62 472.72,227.55 519.19,482.56 24.1,132.47 56.76,286.9 50.65,450.28 -23.99,642.19 56.3,1098.9 56.3,1098.9 138.62,105.62 23.38,247.36 23.38,247.36z"/>
   <g>
    <g>
     <path class="fil17" d="M2708.28 5675.93c0,0 211.69,-18.8 269.79,-179.46 58.1,-160.65 -73.49,-210.21 -73.49,-210.21 0,0 83.75,-116.22 44.44,-276.87 -39.32,-160.65 -268.33,-213.64 -487.09,0 0,0 0,-102.54 -119.64,-121.35 -119.63,-18.8 -153.81,104.26 -254.64,193.13 0,0 -212.32,-23.93 -314.67,160.65 -102.34,184.58 -63.44,409.52 0,614.68 63.43,205.15 935.31,-180.58 935.31,-180.58z"/>
     <path class="fil13" d="M2249.77 5102.25c294.81,-16.36 492.03,131.28 467.4,395.79 -31.99,343.62 36.72,410.15 -16.76,557.8 -58.65,161.95 -208.09,243.78 -433.39,242.41 -294.7,-1.8 -517.6,-178.3 -503.35,-626.66 13.22,-416.34 247.3,-556.09 486.1,-569.34z"/>
     <path class="fil13" d="M2410.29 6547.83c-0.03,-29.06 -0.69,-260.1 -0.69,-260.1l-636.62 -431.22 16.22 631.04 463.32 239.69 157.77 -179.41z"/>
     <path class="fil17" d="M2409.83 6287.84l-0.85 139.2c-320.2,20.13 -420.2,-190.96 -425.52,-203.9 80.13,50.91 177.08,74.43 283.78,75.08 50.43,0.31 97.13,-3.57 140.11,-12.06l2.49 1.68z"/>
     <path class="fil17" d="M1766.14 5795.45c0,0 189.64,53.25 203.28,-197.44 0,0 67.54,5.2 111.7,-94.81 43.51,-100.02 114.96,19.48 200.68,11.69 85.73,-7.79 262.37,-150.02 435.14,-16.89 38.95,-252.75 -179.8,-424.31 -474.66,-407.42 -239,12.99 -479.27,170.29 -478.75,580.83 0.06,44.19 -0.65,85.08 2.6,124.05z"/>
     <g>
      <path class="fil13" d="M1909.69 5712.26c-0.48,80.06 -52.87,144.63 -117,144.23 -64.13,-0.39 -115.72,-65.6 -115.23,-145.65 0.49,-80.05 52.88,-144.63 117,-144.23 64.13,0.39 115.72,65.6 115.23,145.65z"/>
      <g>
       <path class="fil9 str6" d="M1754.43 5649.64c0,0 -25.15,100.13 71.46,123.78"/>
       <path class="fil9 str6" d="M1816.95 5667c0,0 -40.83,18.7 -45.19,74.39"/>
      </g>
     </g>
    </g>
    <g>
     <polyline class="fil9 str7" points="2497.05,5623.38 2472.65,5690.84 2507.06,5785.73 "/>
     <path class="fil9 str7" d="M2507.06 5785.73c4.47,12.32 -4.52,25.36 -17.62,25.56"/>
     <line class="fil9 str7" x1="2489.43" y1="5811.29" x2="2406.11" y2= "5812.65" />
     <path class="fil9 str8" d="M2151.97 5586.92c0,0 79.87,-71.52 148.88,-32.34"/>
     <path class="fil9 str8" d="M2550.21 5549.38c0,0 47.25,-27.95 117.48,41.97"/>
     <g>
      <path class="fil18" d="M2449.65 5909.78c0,0 -5.71,82.89 -48.34,139.21 0,0 -178.75,20.22 -183.85,-157.88 -0.31,-6.06 1.5,-11.57 4.22,-15.96 8.18,-13.58 26.26,-18.96 40.83,-9.29 25.66,17.34 62.93,36.56 109.35,43.72 4.15,0.73 8.32,1.46 12.83,1.75 4.56,0.68 8.67,1.01 13.13,0.89 4.51,0.29 9.02,0.56 13.48,0.45 4.52,0.29 8.98,0.16 13.8,-0.41 8.12,-0.13 16.15,-1.08 24.54,-2.47z"/>
      <path class="fil7" d="M2428.76 5912.24c0,0 -12.18,34.81 -39.41,42.08 -26.03,7.14 -105.74,-2.61 -167.67,-79.17 8.18,-13.58 26.26,-18.96 40.83,-9.29 25.66,17.34 62.93,36.56 109.35,43.72 4.21,1.13 8.71,1.42 12.83,1.75 4.56,0.68 8.67,1.01 13.13,0.89 4.57,0.68 9.02,0.56 13.48,0.45 4.52,0.29 8.98,0.16 13.8,-0.41 1.24,0.26 2.45,0.12 3.65,-0.02z"/>
      <path class="fil19" d="M2388.1 6049.81c-28.48,0.28 -97.32,-4.66 -138.36,-57.16 0,0 36.36,-22.12 74.11,-12.56 50.65,12.81 64.25,69.72 64.25,69.72z"/>
     </g>
     <g>
      <path class="fil17" d="M2294.23 5686.45c0.41,26.09 -20.38,47.58 -46.49,48 -26.08,0.42 -47.58,-20.38 -47.99,-46.47 -0.43,-26.1 20.38,-47.59 46.47,-48.01 26.09,-0.42 47.59,20.39 48.01,46.49z"/>
     </g>
     <g>
      <path class="fil17" d="M2550.21 5680.78c-0.41,26.09 20.38,47.58 46.48,48.01 26.09,0.41 47.58,-20.39 48.01,-46.49 0.43,-26.09 -20.39,-47.58 -46.47,-48 -26.09,-0.42 -47.59,20.39 -48.01,46.47z"/>
     </g>
    </g>
   </g>
   <g>
    <path class="fil7" d="M1786.76 6392.75l-49.16 111.77 251.84 239.79c30.75,29.27 80.31,24.44 104.82,-10.21l89.13 -125.98 -396.63 -215.36z"/>
    <polygon class="fil8" points="2183.39,6608.11 2252.52,6727.24 2129.53,6684.24 "/>
    <path class="fil7" d="M2408.98 6427.04l-112.13 181.07 58.55 116.3c11.93,23.71 47.23,18.26 51.48,-7.94l35.37 -218.08 -33.27 -71.35z"/>
    <polygon class="fil8" points="2296.85,6608.11 2252.52,6727.24 2339.82,6693.47 "/>
   </g>
   <g>
    <g>
     <path class="fil13" d="M1489.36 9214.47c-12.78,105.62 -67.29,280.78 -277.76,344.3 0,0 -770.06,-820.21 -917.39,-1001.38 -146.6,-180.8 -194.72,-402.94 -75.18,-615.3 119.91,-210.87 535,-697.01 645.51,-807.13 47.95,-22.68 135.49,62.41 193.09,254.37 46.09,153.61 70.9,251.75 85.18,372.78 1.87,15.03 4.14,30.81 7.14,48.1 -140.58,144.71 -408.1,419.79 -408.1,419.79l747.51 984.47z"/>
     <path class="fil20" d="M963.4 9297.47c186.81,-101.08 290.41,-238.79 339.67,-322.82 10.76,-18.35 35.5,-21.34 50.47,-6.25 23.2,23.38 47.21,45.75 67.49,63.87 11.27,10.07 14.24,25.98 7.21,39.35 -41.21,78.45 -147.54,241.76 -363.28,355.48 -12.58,6.64 -28.41,4.31 -38.52,-5.69 -20.46,-20.2 -46.64,-46.11 -72.11,-73.25 -14.66,-15.62 -9.77,-40.5 9.06,-50.69z"/>
     <path class="fil7" d="M1071.88 9292.94c-18.68,-57.47 12.76,-119.2 70.24,-137.89 57.47,-18.68 119.2,12.76 137.88,70.23 18.69,57.47 -12.75,119.21 -70.22,137.88 -57.47,18.68 -119.21,-12.75 -137.9,-70.23z"/>
    </g>
    <g>
     <g>
      <path class="fil7" d="M1588.19 7151c21.26,358.05 -132.13,495.8 -132.13,495.8 0,0 -310.67,339.83 -459.01,458.57 -11.93,9.56 -182.83,-120.32 -281.9,-313.04 -87.23,-169.67 -105.87,-403.41 -91.99,-418.96 246.29,-275.95 624.92,-673.55 715.1,-705.69 0,0 222,12.83 249.93,483.32z"/>
     </g>
    </g>
   </g>
   <path class="fil7" d="M2318.91 6701.56c0,0 32.75,388.97 32.75,661.96l-137.98 0c0,0 -1.24,-466.3 -30.29,-660.45l69.13 24.16 66.4 -25.67z"/>
   <g>
    <path class="fil5" d="M5517.67 3705.28l-3745.64 0c-116.23,0 -195.16,-94.24 -176.29,-210.47l415.69 -2559.96c18.87,-116.24 128.41,-210.47 244.64,-210.47l3745.64 0c116.24,0 195.17,94.23 176.29,210.47l-415.68 2559.96c-18.88,116.23 -128.41,210.47 -244.65,210.47z"/>
    <path class="fil6" d="M5401.95 3574.53l-3621.15 0c-111.72,0 -187.6,-90.56 -169.45,-202.3l397.11 -2445.56c18.14,-111.72 123.43,-202.3 235.15,-202.3l3621.15 0c111.72,0 187.58,90.58 169.45,202.3l-397.12 2445.56c-18.13,111.73 -123.41,202.3 -235.14,202.3z"/>
    <path class="fil7" d="M5864.76 724.37l-3621.15 0c-111.72,0 -217.01,90.58 -235.15,202.3l-48.17 296.69 4025.74 0 48.18 -296.69c18.13,-111.72 -57.73,-202.3 -169.45,-202.3z"/>
    <path class="fil21" d="M3261.03 990.8c-10.8,66.55 -73.53,120.51 -140.09,120.51 -66.55,0 -111.75,-53.96 -100.95,-120.51 10.81,-66.56 73.53,-120.52 140.08,-120.52 66.57,0 111.76,53.96 100.95,120.52z"/>
    <path class="fil20" d="M2867.76 990.8c-10.8,66.55 -73.53,120.51 -140.09,120.51 -66.56,0 -111.76,-53.96 -100.95,-120.51 10.81,-66.56 73.53,-120.52 140.09,-120.52 66.57,0 111.77,53.96 100.95,120.52z"/>
    <path class="fil11" d="M2474.49 990.8c-10.81,66.55 -73.53,120.51 -140.1,120.51 -66.56,0 -111.76,-53.96 -100.94,-120.51 10.8,-66.56 73.53,-120.52 140.08,-120.52 66.56,0 111.76,53.96 100.95,120.52z"/>
    <polyline class="fil9 str9" points="2891.43,2149.46 3188.76,2806.3 4833.16,1823.41 "/>
   </g>
   <g>
    <path class="fil1" d="M10746.29 1585.96l-1469.57 0c-157.03,0 -257.86,-159.13 -147.71,-293.16l1005.9 -1183.01c172.63,-210.04 437.01,-90.13 520.8,119.9l387.65 971.8c67.2,168.44 -99.73,384.47 -297.07,384.47z"/>
    <path class="fil2" d="M10744.89 1514.75l-1500.31 0c-157.03,0 -217.14,-171.9 -106.97,-305.93l863.26 -1050.34c172.62,-210.04 477.64,-210.04 561.42,0l418.99 1050.34c53.47,134.03 -79.37,305.93 -236.4,305.93z"/>
    <g>
     <path class="fil7" d="M9963.7 1131.98c12.57,-59.45 68.6,-103.82 133.95,-103.82 65.3,0 102.6,44.36 90.02,103.82 -12.33,58.33 -69.14,106.2 -134.44,106.2 -65.35,0 -101.87,-47.87 -89.53,-106.2zm155.7 -719.75l0 0 216.99 0 -148.94 533.11 -144.61 0 76.56 -533.11z"/>
    </g>
   </g>
   <g>
    <g>
     <line class="fil9 str10" x1="14396.39" y1="2327.68" x2="14417.57" y2= "2236.12" />
     <line class="fil9 str11" x1="14456.31" y1="2068.62" x2="14746.87" y2= "812.38" />
     <polyline class="fil9 str10" points="14766.24,728.64 14787.42,637.08 14693.45,637.08 "/>
     <line class="fil9 str12" x1="14494.8" y1="637.08" x2="11415.82" y2= "637.08" />
     <line class="fil9 str10" x1="11316.49" y1="637.08" x2="11222.53" y2= "637.08" />
     <g>
      <path class="fil22" d="M14500.84 2346.39c-13.19,57.03 -70.13,92.57 -127.14,79.38 -57.03,-13.19 -92.57,-70.13 -79.39,-127.15 13.19,-57.02 70.13,-92.57 127.15,-79.38 57.02,13.19 92.57,70.13 79.38,127.15z"/>
     </g>
     <g>
      <path class="fil22" d="M11227.83 531.09c-58.52,0 -105.99,47.47 -105.99,106 0,58.52 47.47,105.99 105.99,105.99 58.52,0 105.99,-47.47 105.99,-105.99 0,-58.52 -47.47,-106 -105.99,-106z"/>
     </g>
    </g>
   </g>
   <g>
    <g>
     <line class="fil9 str10" x1="9905.35" y1="1920.65" x2="9880.93" y2= "2011.39" />
     <line class="fil9 str13" x1="9838.03" y1="2170.79" x2="9687.91" y2= "2728.73" />
     <polyline class="fil9 str10" points="9666.45,2808.43 9642.04,2899.18 9548.08,2899.18 "/>
     <line class="fil9 str14" x1="9357.23" y1="2899.18" x2="6780.81" y2= "2899.18" />
     <line class="fil9 str10" x1="6685.39" y1="2899.18" x2="6591.43" y2= "2899.18" />
     <g>
      <path class="fil22" d="M9801.62 1898.23c15.2,-56.52 73.38,-90.02 129.89,-74.82 56.52,15.21 90.02,73.38 74.81,129.89 -15.21,56.52 -73.37,90.02 -129.89,74.81 -56.51,-15.2 -90.01,-73.37 -74.81,-129.88z"/>
     </g>
     <g>
      <path class="fil22" d="M6596.72 2793.19c-58.52,0 -105.99,47.45 -105.99,105.99 0,58.52 47.47,105.98 105.99,105.98 58.52,0 105.99,-47.45 105.99,-105.98 0,-58.54 -47.47,-105.99 -105.99,-105.99z"/>
     </g>
    </g>
   </g>
   <g>
    <path class="fil16" d="M16124.22 3585.87l-129.72 -217.29 -1554.3 -477.38 -1979.6 725.21c0,0 -1128.7,2921.34 1081.81,3411.49 2413.43,-490.15 2581.81,-3442.03 2581.81,-3442.03z"/>
    <path class="fil7" d="M15994.5 3368.58l-1679.36 -725.21 -1979.58 725.21c0,0 -1094.47,3028.98 1116.05,3519.14 2413.43,-490.16 2542.89,-3519.14 2542.89,-3519.14z"/>
    <path class="fil23" d="M12309.67 4044.62c-165.04,845.91 -250.75,2372.75 1172.1,2697.38 1550.85,-323.29 2083.9,-1838.92 2262.49,-2686.87l-8.65 19.86 -1561.55 -678.69 -1852.78 680.01 -11.61 -31.68z"/>
    <path class="fil24" d="M15830.92 3476.84l-1545.94 -687.73 -1830.67 687.73c0,0 -64.81,189.15 -126.13,476.99l1828.14 -670.98 41.84 1.32 1564.47 679.96c56.55,-293.64 68.28,-487.29 68.28,-487.29z"/>
    <path class="fil25" d="M13515.93 5357.7l-289.05 -208.78 180.7 -245.26 478.65 343.93 -477.72 618.38 -183.35 -131.62 290.76 -376.64zm668.72 -586.56l290.76 212.95 -183.35 234.84 -477.72 -349.45 478.65 -613.38 180.7 143.54 -289.05 371.51z"/>
    <path class="fil26" d="M13496.84 5273.14l-289.05 -208.78 180.7 -245.27 478.65 343.93 -477.72 618.39 -183.35 -131.62 290.76 -376.64zm668.72 -586.57l290.76 212.96 -183.35 234.84 -477.71 -349.45 478.65 -613.38 180.7 143.54 -289.05 371.51z"/>
   </g>
  </g>
 </g>
</svg>
