<?xml version="1.0" encoding="UTF-8"?>
<!DOCTYPE svg PUBLIC "-//W3C//DTD SVG 1.1//EN" "http://www.w3.org/Graphics/SVG/1.1/DTD/svg11.dtd">
<!-- Creator: CorelDRAW X7 -->
<svg xmlns="http://www.w3.org/2000/svg" xml:space="preserve" width="2844px" height="2334px" version="1.1" style="shape-rendering:geometricPrecision; text-rendering:geometricPrecision; image-rendering:optimizeQuality; fill-rule:evenodd; clip-rule:evenodd"
viewBox="0 0 2844 2334"
 xmlns:xlink="http://www.w3.org/1999/xlink">
 <defs>
  <style type="text/css">
   <![CDATA[
    .str0 {stroke:#2868D6;stroke-width:11.811}
    .fil8 {fill:#FEFEFE}
    .fil1 {fill:#1E2C9C}
    .fil18 {fill:#2348B9}
    .fil15 {fill:#2868D6}
    .fil6 {fill:#2868D6}
    .fil21 {fill:#2C196B}
    .fil23 {fill:#308F7B}
    .fil25 {fill:#308F7B}
    .fil24 {fill:#57C0B1}
    .fil22 {fill:#5BC1AB}
    .fil26 {fill:#5BC1AB}
    .fil16 {fill:#5CBFAD}
    .fil7 {fill:#CFDEF7}
    .fil13 {fill:#ED3237}
    .fil0 {fill:#EDEFFB}
    .fil20 {fill:#FCA605}
    .fil2 {fill:#FEA600}
    .fil17 {fill:#FFA3A3}
    .fil19 {fill:#FFA6A3}
    .fil3 {fill:#FFC63B}
    .fil10 {fill:#FFE9DE}
    .fil11 {fill:#FFFBFF}
    .fil9 {fill:white}
    .fil14 {fill:#445383;fill-rule:nonzero}
    .fil12 {fill:#CFDEF7;fill-rule:nonzero}
    .fil5 {fill:#FEA600;fill-rule:nonzero}
    .fil4 {fill:#FFC63B;fill-rule:nonzero}
   ]]>
  </style>
 </defs>
 <g id="Layer_x0020_1">
  <metadata id="CorelCorpID_0Corel-Layer"/>
  <g id="_1439848016656">
   <path class="fil0" d="M118 1490c-71,-176 -116,-328 -118,-519 1,-382 18,-712 427,-868 111,-42 222,-38 338,-38 144,0 246,55 367,119 217,115 438,54 663,27 157,-18 413,21 546,109 145,104 186,234 186,408 -3,193 -92,371 -131,562 -37,176 -182,460 -284,607 -62,89 -112,105 -216,142 -295,99 -546,114 -852,65 -165,-26 -152,31 -347,-63 -202,-97 -376,-251 -509,-430 -29,-40 -51,-76 -70,-121z"/>
   <rect class="fil1" x="147" y="2287" width="2615.01" height="46.6972"/>
   <path class="fil2" d="M2292 1634c-128,19 -197,42 -263,165 -89,166 56,234 71,398 143,49 214,74 358,2 86,-43 138,-142 144,-233 12,-175 69,-143 169,-262 79,-94 119,-263 -12,-313 -84,-32 -156,-45 -238,13 -84,60 -44,194 -229,230z"/>
   <path class="fil3" d="M2693 749c136,69 99,257 38,382 -26,56 -78,115 -96,168 -27,78 -29,127 -61,170 -120,160 -113,168 -308,230 -41,13 -91,28 -133,32 -44,1 -70,-8 -109,-27 -90,-50 -180,-78 -120,-198 22,-38 107,-223 118,-210 19,-52 156,-88 215,-158 35,-42 -1,-98 15,-175 35,-160 240,-316 422,-223l19 9z"/>
   <polygon class="fil4" points="2120,2119 2158,2079 2148,1944 2157,1943 2166,2070 2326,1898 2315,1715 2324,1714 2334,1889 2493,1718 2490,1568 2499,1568 2502,1709 2691,1506 2697,1512 2558,1661 2695,1661 2695,1670 2550,1670 2390,1843 2567,1843 2567,1851 2382,1851 2222,2023 2493,2023 2493,2032 2214,2032 2127,2125 "/>
   <polygon class="fil5" points="2166,1660 2195,1607 2195,1607 2125,1366 2133,1363 2201,1596 2324,1373 2324,1373 2271,1195 2280,1192 2330,1362 2459,1130 2458,1130 2420,984 2429,982 2464,1120 2613,851 2621,855 2511,1054 2648,1022 2650,1031 2506,1065 2506,1063 2382,1287 2558,1245 2560,1254 2378,1297 2378,1295 2247,1531 2376,1499 2378,1508 2242,1541 2242,1541 2174,1664 "/>
   <rect class="fil6" x="937" width="1187" height="2287" rx="94" ry="94"/>
   <rect class="fil7" x="994" y="91" width="1073" height="2003" rx="21" ry="20"/>
   <circle class="fil8" cx="1530" cy="2193" r="59"/>
   <circle class="fil8" cx="1530" cy="46" r="18"/>
   <g>
    <g>
     <path class="fil6" d="M1530 714c160,0 289,129 289,288 0,159 -129,288 -289,288 -159,0 -288,-129 -288,-288 0,-159 129,-288 288,-288zm0 22c147,0 267,119 267,266 0,147 -120,266 -267,266 -147,0 -266,-119 -266,-266 0,-147 119,-266 266,-266z"/>
     <circle class="fil9" cx="1530" cy="1002" r="266"/>
     <path class="fil10" d="M1576 1039l-92 0c-40,0 -72,32 -72,72l0 131c34,17 74,26 115,26 44,0 86,-11 122,-29l0 -128c0,-40 -33,-72 -73,-72zm-46 -199c45,0 81,36 81,81 0,44 -36,80 -81,80 -44,0 -80,-36 -80,-80 0,-45 36,-81 80,-81z"/>
     <g>
      <rect class="fil11 str0" x="1077" y="1627" width="907" height="178" rx="115" ry="89"/>
      <rect class="fil11 str0" x="1077" y="1351" width="907" height="178" rx="115" ry="89"/>
      <rect class="fil6" x="1353" y="1907" width="354" height="112" rx="45" ry="56"/>
      <path class="fil12" d="M1477 1963c0,-9 2,-16 7,-22 5,-5 12,-8 20,-8 9,0 15,3 20,8 5,6 7,12 7,21 0,9 -2,16 -7,22 -5,5 -12,8 -20,8 -8,0 -15,-3 -20,-8 -5,-5 -7,-12 -7,-21zm9 0c0,6 1,11 5,15 3,4 7,6 13,6 5,0 10,-2 13,-6 3,-3 5,-9 5,-15 0,-7 -2,-12 -5,-16 -3,-4 -7,-6 -13,-6 -6,0 -10,2 -13,6 -4,4 -5,9 -5,16z"/>
      <path id="1" class="fil12" d="M1584 1991l-12 0 -20 -26c0,-1 -1,-1 -1,-2l0 0 0 28 -9 0 0 -57 9 0 0 27 0 0c0,-1 1,-2 1,-3l20 -24 10 0 -22 27 24 30z"/>
      <g>
       <g>
        <circle class="fil13" cx="1179" cy="1439" r="20"/>
        <circle class="fil13" cx="1254" cy="1439" r="20"/>
        <circle class="fil13" cx="1328" cy="1439" r="20"/>
        <circle class="fil13" cx="1402" cy="1439" r="20"/>
        <circle class="fil13" cx="1476" cy="1439" r="20"/>
        <circle class="fil13" cx="1550" cy="1439" r="20"/>
        <circle class="fil13" cx="1624" cy="1439" r="20"/>
        <circle class="fil13" cx="1698" cy="1439" r="20"/>
       </g>
       <circle class="fil13" cx="1179" cy="1724" r="20"/>
       <circle class="fil13" cx="1254" cy="1724" r="20"/>
      </g>
     </g>
    </g>
    <g id="_1890882608">
     <path class="fil14" d="M1297 540l0 18 -10 0 0 -50 20 0c5,0 10,2 13,5 3,3 5,6 5,11 0,5 -2,9 -5,12 -3,3 -8,4 -13,4l-10 0 0 0zm0 -8l10 0c2,0 5,0 6,-2 1,-1 2,-3 2,-6 0,-2 -1,-4 -2,-6 -1,-1 -4,-2 -6,-2l-10 0 0 16 0 0zm56 26c0,0 -1,-1 -1,-2 0,-1 0,-2 0,-3 -1,2 -3,3 -4,4 -2,1 -4,2 -6,2 -4,0 -7,-1 -9,-3 -3,-2 -4,-5 -4,-8 0,-4 2,-7 5,-9 2,-2 6,-3 12,-3l5 0 0 -3c0,-1 0,-3 -1,-4 -1,-1 -2,-1 -4,-1 -2,0 -3,0 -4,1 -1,1 -1,2 -1,3l-10 0 0 0c0,-3 1,-6 4,-8 3,-2 7,-4 12,-4 4,0 8,2 10,4 3,2 5,5 5,10l0 15c0,2 0,3 0,5 0,1 1,3 1,4l-10 0 0 0zm-9 -6c2,0 3,-1 5,-2 1,0 2,-1 2,-3l0 -5 -5 0c-2,0 -4,1 -5,2 -1,1 -2,2 -2,4 0,1 1,2 2,3 0,0 2,1 3,1l0 0zm45 -4c0,-1 0,-2 -1,-3 -1,-1 -3,-1 -6,-2 -5,-1 -8,-2 -10,-4 -2,-2 -4,-4 -4,-7 0,-3 2,-6 5,-8 2,-2 6,-4 10,-4 5,0 9,2 12,4 2,2 4,5 4,8l0 0 -10 0c0,-1 -1,-2 -1,-3 -1,-1 -3,-2 -5,-2 -1,0 -3,1 -3,2 -1,0 -2,1 -2,3 0,1 1,2 2,2 1,1 3,2 6,2 4,1 8,3 10,4 2,2 3,5 3,8 0,3 -1,6 -4,8 -3,2 -7,3 -12,3 -5,0 -8,-1 -11,-4 -3,-2 -5,-5 -4,-8l0 0 9 0c0,2 1,3 2,4 1,1 3,1 5,1 1,0 3,0 4,-1 1,-1 1,-2 1,-3l0 0zm37 0c0,-1 -1,-2 -2,-3 -1,-1 -3,-1 -6,-2 -4,-1 -8,-2 -10,-4 -2,-2 -3,-4 -3,-7 0,-3 1,-6 4,-8 3,-2 6,-4 11,-4 4,0 8,2 11,4 3,2 4,5 4,8l0 0 -10 0c0,-1 0,-2 -1,-3 -1,-1 -2,-2 -4,-2 -2,0 -3,1 -4,2 -1,0 -2,1 -2,3 0,1 1,2 2,2 1,1 3,2 6,2 4,1 8,3 10,4 2,2 3,5 3,8 0,3 -1,6 -4,8 -3,2 -7,3 -11,3 -5,0 -9,-1 -12,-4 -3,-2 -4,-5 -4,-8l0 0 9 0c0,2 1,3 2,4 1,1 3,1 5,1 2,0 3,0 4,-1 1,-1 2,-2 2,-3l0 0zm48 -3l1 0 4 -24 10 0 -10 37 -8 0 -7 -22 0 0 -7 22 -8 0 -10 -37 9 0 5 24 1 0 7 -24 6 0 7 24 0 0zm18 -6c0,-5 2,-10 5,-13 3,-4 7,-6 13,-6 5,0 10,2 13,6 3,3 4,8 4,13l0 1c0,6 -1,10 -4,14 -3,3 -8,5 -13,5 -6,0 -10,-2 -13,-5 -3,-4 -5,-8 -5,-14l0 -1 0 0zm10 1c0,4 1,6 2,8 1,2 3,3 6,3 2,0 4,-1 6,-3 1,-2 1,-4 1,-8l0 -1c0,-3 0,-6 -1,-8 -2,-2 -4,-3 -6,-3 -3,0 -5,1 -6,3 -1,2 -2,5 -2,8l0 1 0 0zm51 -10l-3 0c-2,0 -3,0 -4,1 -1,0 -2,1 -2,2l0 25 -10 0 0 -37 9 0 0 6c1,-2 2,-4 4,-5 1,-1 3,-2 5,-2 0,0 1,1 1,1 0,0 1,0 1,0l-1 9 0 0zm4 10c0,-6 1,-11 4,-14 2,-4 6,-6 10,-6 2,0 4,1 5,2 2,0 3,2 4,3l0 -20 10 0 0 53 -8 0 -1 -4c-1,2 -3,3 -4,4 -2,1 -4,1 -6,1 -4,0 -8,-2 -10,-5 -3,-3 -4,-8 -4,-13l0 -1 0 0zm10 1c0,3 0,6 1,8 2,1 3,2 6,2 1,0 2,0 4,-1 1,0 2,-1 2,-2l0 -16c0,-1 -1,-2 -2,-3 -1,0 -3,-1 -4,-1 -3,0 -4,1 -6,4 -1,2 -1,5 -1,8l0 1zm66 4l1 3 0 0 1 -3 11 -37 10 0 -17 50 -10 0 -17 -50 11 0 10 37 0 0zm48 13c-1,0 -1,-1 -1,-2 -1,-1 -1,-2 -1,-3 -1,2 -2,3 -4,4 -2,2 -4,2 -6,2 -4,0 -7,-1 -9,-3 -2,-2 -3,-5 -3,-8 0,-4 1,-7 4,-9 3,-2 7,-3 12,-3l6 0 0 -3c0,-1 -1,-3 -2,-4 -1,-1 -2,-1 -4,-1 -1,0 -3,0 -4,1 0,1 -1,2 -1,3l-10 0 0 0c0,-3 2,-6 5,-8 2,-2 6,-4 11,-4 4,0 8,2 11,4 3,2 4,5 4,10l0 15c0,2 0,3 0,5 1,1 1,3 2,4l-10 0 0 0zm-10 -6c2,0 4,-1 5,-2 1,0 2,-1 3,-3l0 -5 -6 0c-2,0 -4,1 -5,2 -1,1 -1,2 -1,4 0,1 0,2 1,3 1,0 2,1 3,1l0 0zm48 1c-1,2 -2,3 -4,5 -2,1 -4,1 -6,1 -4,0 -7,-1 -9,-4 -3,-2 -4,-6 -4,-11l0 -23 10 0 0 23c0,2 1,4 2,6 1,1 2,1 4,1 1,0 3,0 4,0 1,-1 2,-2 3,-3l0 -27 10 0 0 37 -9 0 -1 -5 0 0zm28 5l-10 0 0 -53 10 0 0 53zm20 -46l0 9 6 0 0 7 -6 0 0 19c0,2 0,3 1,3 1,1 1,1 2,1 1,0 1,0 2,0 0,0 1,0 1,0l1 7c-1,0 -2,1 -3,1 -1,0 -2,0 -3,0 -4,0 -6,-1 -8,-3 -2,-2 -3,-5 -3,-9l0 -19 -5 0 0 -7 5 0 0 -9 10 0 0 0zm-360 80l13 37 0 0 13 -37 13 0 0 50 -10 0 0 -15 1 -22 0 0 -13 37 -7 0 -14 -37 0 0 1 22 0 15 -10 0 0 -50 13 0 0 0zm70 50c-1,-1 -1,-2 -1,-3 0,-1 -1,-1 -1,-2 -1,1 -2,3 -4,4 -2,1 -4,2 -6,2 -4,0 -7,-1 -9,-3 -2,-2 -3,-5 -3,-8 0,-4 1,-7 4,-9 3,-2 7,-3 12,-3l6 0 0 -3c0,-2 0,-3 -1,-4 -1,-1 -3,-1 -5,-1 -1,0 -2,0 -3,1 -1,0 -2,2 -2,3l-9 0 0 0c-1,-3 1,-6 4,-8 3,-3 6,-4 11,-4 5,0 8,1 11,4 3,2 4,5 4,9l0 16c0,1 0,3 1,5 0,1 0,3 1,4l-10 0 0 0zm-9 -7c1,0 3,0 4,-1 2,-1 3,-2 3,-3l0 -5 -6 0c-2,0 -3,0 -4,1 -2,1 -2,3 -2,4 0,2 0,3 1,3 1,1 2,1 4,1l0 0zm34 -30l0 5c2,-2 3,-3 5,-4 2,-1 4,-2 6,-2 4,0 7,1 9,4 2,2 3,6 3,11l0 23 -10 0 0 -23c0,-3 -1,-4 -2,-5 -1,-2 -2,-2 -4,-2 -1,0 -3,0 -4,1 -1,0 -2,1 -2,2l0 27 -10 0 0 -37 9 0 0 0zm52 37c0,-1 0,-2 -1,-3 0,-1 0,-1 0,-2 -1,1 -2,3 -4,4 -2,1 -4,2 -6,2 -4,0 -7,-1 -9,-3 -2,-2 -3,-5 -3,-8 0,-4 1,-7 4,-9 3,-2 7,-3 12,-3l6 0 0 -3c0,-2 -1,-3 -2,-4 -1,-1 -2,-1 -4,-1 -1,0 -3,0 -4,1 -1,0 -1,2 -1,3l-10 0 0 0c0,-3 2,-6 4,-8 3,-3 7,-4 12,-4 4,0 8,1 11,4 2,2 4,5 4,9l0 16c0,1 0,3 0,5 0,1 1,3 1,4l-10 0 0 0zm-9 -7c2,0 4,0 5,-1 1,-1 2,-2 3,-3l0 -5 -6 0c-2,0 -4,0 -5,1 -1,1 -1,3 -1,4 0,2 0,3 1,3 1,1 2,1 3,1l0 0zm24 -11c0,-6 1,-11 4,-14 2,-4 6,-6 10,-6 3,0 4,1 6,2 2,1 3,2 4,4l1 -5 9 0 0 37c0,5 -2,9 -5,11 -3,3 -8,4 -14,4 -1,0 -3,0 -6,-1 -2,0 -4,-1 -5,-2l1 -7c2,0 4,1 5,1 2,1 3,1 5,1 3,0 5,-1 6,-2 2,-1 2,-3 2,-5l0 -3c-1,1 -2,2 -3,3 -2,0 -4,1 -6,1 -4,0 -8,-2 -10,-5 -3,-4 -4,-8 -4,-13l0 -1 0 0zm10 1c0,3 0,5 2,7 1,2 2,3 5,3 1,0 3,0 4,-1 1,0 2,-1 2,-2l0 -17c0,-1 -1,-2 -2,-2 -1,-1 -3,-1 -4,-1 -2,0 -4,1 -5,3 -2,2 -2,5 -2,9l0 1 0 0zm48 18c-6,0 -10,-2 -13,-5 -3,-4 -5,-8 -5,-13l0 -2c0,-5 2,-10 5,-13 3,-4 7,-6 12,-6 5,0 9,2 12,5 2,3 4,7 4,12l0 5 -23 0 0 1c1,2 1,4 3,6 1,1 3,2 6,2 2,0 4,0 5,-1 2,0 3,-1 5,-2l3 6c-2,2 -4,3 -6,4 -3,0 -5,1 -8,1l0 0zm-1 -31c-2,0 -4,1 -5,2 -1,1 -1,3 -2,6l1 0 12 0 0 -1c0,-2 -1,-4 -2,-5 -1,-1 -2,-2 -4,-2l0 0zm41 2l-4 -1c-1,0 -2,1 -3,1 -1,1 -2,2 -2,3l0 25 -10 0 0 -37 9 0 0 5c1,-2 2,-3 4,-4 1,-1 3,-2 5,-2 0,0 0,0 1,0 0,0 1,0 1,1l-1 9 0 0z"/>
     <g>
      <path class="fil13" d="M1520 329c0,-6 -4,-10 -10,-10 -5,0 -10,4 -10,10 0,5 5,10 10,10 6,0 10,-5 10,-10z"/>
      <path class="fil13" d="M1560 329c0,-6 -4,-10 -10,-10 -5,0 -10,4 -10,10 0,5 5,10 10,10 6,0 10,-5 10,-10z"/>
      <path class="fil13" d="M1600 329c0,-6 -4,-10 -10,-10 -5,0 -10,4 -10,10 0,5 5,10 10,10 6,0 10,-5 10,-10z"/>
      <path class="fil13" d="M1480 329c0,-6 -4,-10 -10,-10 -5,0 -10,4 -10,10 0,5 5,10 10,10 6,0 10,-5 10,-10z"/>
      <path class="fil15" d="M1610 269c0,-11 -9,-20 -20,-20l-61 0c-5,-18 -20,-30 -39,-30 -22,0 -40,18 -40,40 0,22 18,40 40,40 19,0 34,-13 39,-30l21 0 0 20 20 0 0 -20 20 0 0 20 20 0 0 -20 0 0zm-120 10c-11,0 -20,-9 -20,-20 0,-11 9,-20 20,-20 11,0 20,9 20,20 0,11 -9,20 -20,20l0 0z"/>
      <path class="fil15" d="M1618 166l-175 0c-21,0 -38,16 -38,38l0 150c0,21 17,37 38,37l0 12c0,8 5,13 12,13 8,0 13,-5 13,-13l0 -12 125 0 0 12c0,8 5,13 12,13 8,0 13,-5 13,-13l0 -12c21,0 37,-16 37,-37l0 -150c0,-22 -16,-38 -37,-38l0 0zm12 188c0,7 -5,12 -12,12l-175 0c-8,0 -13,-5 -13,-12l0 -150c0,-8 5,-13 13,-13l175 0c7,0 12,5 12,13l0 150z"/>
     </g>
    </g>
   </g>
   <g>
    <path class="fil16" d="M617 863c-4,-55 -9,-111 -14,-166 138,214 354,202 501,128 2,23 13,31 31,29 -82,100 -364,132 -518,9z"/>
    <path class="fil17" d="M1135 854c-20,1 -30,-8 -31,-29 16,-16 40,-34 59,-42 20,-7 34,-8 60,-8 -25,31 -66,53 -88,79z"/>
    <path class="fil18" d="M489 1381c25,-47 98,-44 164,-10 26,264 52,527 78,791 -32,2 -63,4 -94,6 -49,-262 -99,-525 -148,-787z"/>
    <path class="fil19" d="M407 2165l-40 -3c2,26 3,52 5,77 6,28 31,27 38,2l-3 -76z"/>
    <path class="fil1" d="M372 2243c-77,7 -100,23 -93,43 51,0 102,0 153,0 4,-17 -1,-33 -26,-43 -11,0 -23,0 -34,0z"/>
    <path class="fil19" d="M706 2165l-42 -3c1,26 10,52 12,77 6,28 31,27 37,2l-7 -76z"/>
    <path class="fil1" d="M717 2243c53,6 84,23 93,43 -50,0 -101,0 -152,0 -4,-17 1,-33 25,-43 12,0 23,0 34,0z"/>
    <path class="fil6" d="M311 1127c-18,370 0,709 29,1039 35,12 69,10 103,-2 10,-262 21,-511 31,-773 3,-10 10,-9 15,-10 36,-48 95,-41 164,-10 -8,-83 -17,-165 -25,-248 -106,1 -212,3 -317,4z"/>
    <path class="fil20" d="M430 662c6,-23 103,-16 102,0l0 480 -99 0c0,-163 -3,-318 -3,-480z"/>
    <g>
     <path class="fil21" d="M546 551c21,-2 38,10 38,36 -2,44 -48,44 -75,35 -47,-15 -66,11 -118,9 -64,-2 -75,-88 -3,-112 13,-4 -35,-111 83,-115 53,-2 67,33 84,33 27,-1 38,12 39,32 2,42 -66,17 -60,58 1,7 11,24 12,24z"/>
     <path class="fil17" d="M434 550c-1,-9 -23,-6 -27,-26 -5,-34 25,-43 47,-15 23,-7 46,-23 71,-57 31,22 38,40 30,81 -9,42 -34,61 -57,76 1,17 1,35 2,53 -3,38 -50,30 -49,-5 1,-20 2,-39 3,-59 -13,-9 -16,-7 -20,-48z"/>
    </g>
    <g>
     <g>
      <path class="fil22" d="M151 677c15,-1 30,-3 46,-4 -24,98 -31,255 -2,253 11,-1 75,-72 129,-181 1,56 2,107 3,163 -45,54 -93,110 -154,103 -62,-7 -70,-80 -73,-130 -5,-70 37,-158 51,-204z"/>
      <path class="fil17" d="M155 677l34 -3c12,-24 30,-49 -12,-90 -6,-2 -7,-46 -14,-44 -8,1 -6,43 -11,46 -18,35 -5,63 3,91z"/>
     </g>
     <g>
      <g>
       <path class="fil23" d="M440 1279c-88,7 -140,-11 -166,-47 81,-154 33,-325 50,-487 21,-56 58,-85 109,-90 21,101 30,171 32,292 3,122 -4,254 -25,332z"/>
       <path class="fil24" d="M418 732l-32 29 79 186c-2,-121 -11,-191 -32,-292 -15,1 -29,5 -42,11l-5 58 32 8z"/>
       <path class="fil25" d="M514 1279c88,7 140,-11 167,-47 -81,-154 -33,-325 -50,-487 -22,-56 -58,-85 -110,-90 -20,101 -29,171 -32,292 -2,122 5,254 25,332z"/>
       <path class="fil24" d="M537 732l32 29 -80 186c3,-121 12,-191 32,-292 16,1 30,5 42,11l6 58 -32 8z"/>
      </g>
      <g>
       <circle class="fil26" cx="514" cy="976" r="13"/>
       <circle class="fil26" cx="514" cy="1044" r="13"/>
      </g>
     </g>
    </g>
   </g>
  </g>
 </g>
</svg>
